<svg width="46" height="36" viewBox="0 0 46 36" fill="none" xmlns="http://www.w3.org/2000/svg">
<g id="bee-small">
<g id="Group">
<path id="Vector" d="M27.0237 23.2785C27.0237 23.2785 27.175 23.0849 27.3424 22.9036C27.5062 22.7195 27.6702 22.5351 27.6702 22.5351C27.6831 22.5211 27.7045 22.5197 27.7187 22.5323C27.7326 22.5448 27.734 22.5665 27.7215 22.5807L27.7195 22.5827C27.7195 22.5827 27.5499 22.7599 27.3803 22.937C27.2076 23.1111 27.0488 23.2997 27.0488 23.2997C27.0429 23.3067 27.0326 23.3075 27.0256 23.3017C27.019 23.2958 27.0181 23.2855 27.0237 23.2785Z" fill="#060303"/>
</g>
<path id="Vector_2" d="M29.1048 21.1503C29.1048 21.1503 29.2006 21.0705 29.3443 20.9507C29.4851 20.829 29.6877 20.6783 29.8855 20.5248C30.2856 20.2232 30.7029 19.9448 30.7029 19.9448C30.7468 19.9156 30.806 19.9271 30.8353 19.9713C30.8646 20.0148 30.8528 20.0739 30.8091 20.1031C30.8085 20.1034 30.8071 20.1042 30.8071 20.1042C30.8071 20.1042 30.3887 20.371 29.9861 20.6609C29.586 20.951 29.1935 21.2605 29.1935 21.2605C29.1628 21.2847 29.1183 21.2794 29.0941 21.2487C29.0704 21.2186 29.0755 21.1748 29.1048 21.1503Z" fill="#060303"/>
<path id="Vector_3" d="M32.4056 18.9947C32.4056 18.9947 32.5159 18.9407 32.6812 18.8591C32.8434 18.775 33.0746 18.6777 33.3013 18.5781C33.5319 18.4882 33.7603 18.3932 33.9369 18.3359L34.2289 18.2343C34.2953 18.2112 34.3672 18.248 34.3896 18.3168C34.4119 18.3855 34.3763 18.4603 34.3099 18.4834L34.3088 18.4837L34.3039 18.4854C34.3039 18.4854 34.1893 18.5242 34.0171 18.5824C33.8438 18.6366 33.6187 18.7282 33.392 18.8141C33.1693 18.9108 32.9465 18.9992 32.7795 19.0805C32.6126 19.1579 32.5012 19.2095 32.5012 19.2095C32.4437 19.2363 32.3762 19.2095 32.3503 19.1499C32.3249 19.0911 32.3497 19.0223 32.4056 18.9947Z" fill="#060303"/>
<path id="Vector_4" d="M36.2162 17.8244C36.2162 17.8244 36.3357 17.8111 36.5149 17.7913C36.6913 17.7674 36.9397 17.7567 37.183 17.7402C37.4265 17.7359 37.67 17.7258 37.8525 17.7349C38.0352 17.7396 38.1571 17.7426 38.1571 17.7426C38.2353 17.7444 38.2972 17.8084 38.2953 17.8854C38.2931 17.9624 38.2282 18.0229 38.1498 18.0207H38.1487L38.1419 18.0205C38.1419 18.0205 38.0232 18.0167 37.8457 18.0106C37.6681 18 37.4309 18.0082 37.1938 18.0101C36.9577 18.0245 36.7247 18.0314 36.5439 18.0543C36.3644 18.0727 36.245 18.085 36.245 18.085C36.1717 18.0924 36.106 18.0402 36.0984 17.968C36.0908 17.8966 36.1435 17.8324 36.2162 17.8244Z" fill="#060303"/>
<path id="Vector_5" d="M40.1737 18.0195C40.1737 18.0195 40.2916 18.052 40.4683 18.1009C40.6444 18.145 40.8831 18.2284 41.119 18.3047C41.351 18.3918 41.5847 18.474 41.7545 18.55C41.9256 18.622 42.04 18.6701 42.04 18.6701C42.1084 18.6988 42.1414 18.7794 42.1133 18.8502C42.0855 18.9205 42.0083 18.9544 41.94 18.9265L41.935 18.9242C41.935 18.9242 41.8229 18.8781 41.6547 18.8087C41.488 18.7355 41.259 18.6567 41.0319 18.5733C40.8015 18.501 40.5774 18.4239 40.3972 18.3798C40.22 18.3323 40.102 18.3004 40.102 18.3004C40.0268 18.2805 39.9816 18.2011 40.0011 18.1234C40.0207 18.046 40.0976 17.9993 40.1728 18.0192L40.1737 18.0195Z" fill="#060303"/>
<path id="Vector_6" d="M43.791 19.5935C43.791 19.5935 44.2117 19.8576 44.6228 20.1507C45.0305 20.4429 45.4208 20.7565 45.4208 20.7565C45.4607 20.7886 45.4672 20.8468 45.4351 20.8868C45.4033 20.9259 45.3462 20.9326 45.3065 20.902C45.3065 20.902 44.9126 20.6007 44.5038 20.3211C44.0972 20.0446 43.6681 19.7878 43.6681 19.7878C43.6138 19.7552 43.596 19.6846 43.6287 19.6303C43.6613 19.5757 43.7319 19.558 43.7862 19.5904C43.7868 19.5909 43.7874 19.5912 43.7879 19.5915L43.791 19.5935Z" fill="#060303"/>
<g id="Group 2">
<g id="Group_2">
<path id="Vector_7" d="M10.148 16.461C9.0107 19.5229 11.2968 23.2059 15.2441 24.6683C19.1915 26.1307 23.3213 24.8347 24.4586 21.7729C25.5841 18.7019 23.3099 15.0281 19.3625 13.5656C18.2625 13.1504 17.138 12.9626 16.0798 12.9586C13.3455 12.9655 10.9667 14.2518 10.148 16.461Z" fill="url(#paint0_linear_179_1530)"/>
</g>
<g id="Group_3">
<path id="Vector_8" d="M21.4491 14.6909C21.4491 14.6909 21.1606 21.3681 17.6655 25.1965C17.6655 25.1965 22.8149 20.9015 21.4491 14.6909Z" fill="#060303" stroke="#060303" stroke-width="0.59" stroke-miterlimit="10" stroke-linejoin="round"/>
</g>
<g id="Group_4">
<path id="Vector_9" d="M18.5085 10.8805C18.5085 10.8805 18.5372 10.7819 18.5907 10.5972C18.6189 10.5056 18.654 10.3925 18.6949 10.2596C18.7347 10.1264 18.7921 9.97518 18.8175 9.79968C18.8782 9.44981 18.9946 9.04395 19.0317 8.55089C19.0459 8.42916 19.0607 8.30353 19.0757 8.17428C19.0832 8.10993 19.091 8.04419 19.0991 7.97817C19.101 7.91132 19.103 7.84335 19.1052 7.77482C19.113 7.50044 19.1217 7.21213 19.1306 6.91129C19.1169 6.62186 19.1217 6.28202 19.0815 5.97114C19.062 5.81181 19.0584 5.64968 19.0325 5.4845C19.0094 5.31903 18.986 5.15106 18.962 4.98086C18.847 4.30451 18.6943 3.59001 18.4102 2.8911C18.1347 2.19497 17.7266 1.4969 17.1124 0.996604C16.5191 0.478481 15.6789 0.232791 14.9207 0.466225C14.7396 0.508566 14.5666 0.599655 14.3936 0.683781C14.3095 0.730022 14.2321 0.790191 14.1516 0.842282L14.0323 0.923064L13.9234 1.01945C13.6179 1.25567 13.3786 1.56933 13.1504 1.87713C12.7131 2.51532 12.4108 3.2315 12.2055 3.94545C12.0002 4.66107 11.8752 5.37474 11.8178 6.05833C11.7947 6.22881 11.7961 6.39845 11.7858 6.56476C11.7821 6.64832 11.7782 6.73106 11.7743 6.81295C11.7696 6.87842 11.7732 6.97508 11.7724 7.05363C11.7727 7.21882 11.7729 7.38122 11.7732 7.54083C11.7771 7.69822 11.7924 7.84669 11.8008 7.996C11.8353 8.59101 11.9437 9.13671 12.0356 9.61695C12.0994 9.85261 12.1515 10.0769 12.2136 10.2799C12.2822 10.481 12.3454 10.6657 12.4025 10.8329C12.5362 11.1593 12.6446 11.4176 12.7401 11.5822C12.8265 11.7527 12.8727 11.8438 12.8727 11.8438L12.8318 11.8711C12.8318 11.8711 12.7721 11.7875 12.6599 11.6304C12.5407 11.4766 12.4014 11.2304 12.2237 10.9128C12.1409 10.7515 12.0629 10.5666 11.9727 10.3666C11.8902 10.164 11.8161 9.93896 11.7287 9.70079C11.5813 9.21498 11.4448 8.66009 11.3729 8.03305C11.3557 7.87733 11.3311 7.71493 11.3186 7.5542C11.3094 7.39487 11.3002 7.23274 11.291 7.06756C11.2882 6.9812 11.2774 6.91129 11.281 6.80905C11.2827 6.72326 11.2843 6.6369 11.2863 6.54971C11.2924 6.37533 11.2871 6.19789 11.3066 6.01933C11.3434 5.30176 11.481 4.54798 11.7181 3.79698C11.9604 3.04932 12.2983 2.29442 12.7994 1.62253C13.3114 0.972091 13.9922 0.361486 14.8714 0.201592C15.285 0.118581 15.7291 0.13028 16.1291 0.273461C16.5296 0.400484 16.9001 0.610798 17.2079 0.88128C17.8428 1.40609 18.2929 2.09163 18.6514 2.78134C19.0005 3.47886 19.247 4.20145 19.3866 4.90509C19.4448 5.25831 19.5016 5.60289 19.5194 5.94412C19.5537 6.29037 19.5409 6.59122 19.5484 6.91351C19.5253 7.22467 19.503 7.52273 19.4821 7.80658C19.4765 7.87733 19.4712 7.94697 19.4657 8.01606C19.4531 8.08403 19.4403 8.15116 19.4281 8.21746C19.403 8.34977 19.3788 8.47819 19.3554 8.60243C19.2824 9.10189 19.1186 9.52363 19.0122 9.86821C18.9623 10.0437 18.8871 10.1847 18.8308 10.3117C18.7723 10.4381 18.7228 10.5457 18.6826 10.6326C18.5991 10.8056 18.5545 10.8978 18.5545 10.8978L18.5085 10.8805Z" fill="#231F20"/>
</g>
<g id="Group_5">
<path id="Vector_10" d="M22.288 13.704C22.288 13.704 22.361 13.6279 22.4978 13.485C22.6426 13.3485 22.8265 13.1279 23.0524 12.8474C23.1554 12.6967 23.2802 12.5393 23.4025 12.3588C23.5145 12.1702 23.6541 11.9803 23.773 11.7574C23.8964 11.5376 24.0257 11.3036 24.1435 11.0465C24.2739 10.7961 24.3792 10.5178 24.4967 10.232C24.5597 10.0908 24.6023 9.93785 24.6577 9.78687C24.6842 9.7111 24.7106 9.6345 24.7374 9.55678L24.7577 9.49884C24.7608 9.49215 24.7683 9.46207 24.7733 9.4448L24.8076 9.32251C24.8538 9.15955 24.9012 8.99353 24.9491 8.82472C24.9878 8.65926 25.0274 8.49101 25.0672 8.32053C25.2132 7.63025 25.3352 6.8865 25.3316 6.10959C25.3352 5.33686 25.2182 4.5165 24.8524 3.78584C24.7694 3.5992 24.6533 3.43178 24.5404 3.26242C24.4819 3.17913 24.4081 3.10838 24.3429 3.03066C24.309 2.99305 24.2772 2.95294 24.2413 2.91756L24.1251 2.81979C23.9769 2.68023 23.7967 2.58691 23.624 2.48718L23.344 2.38161C23.3248 2.37492 23.2883 2.35905 23.2836 2.3596L23.2061 2.34456L23.0513 2.3142C23 2.30584 22.9468 2.29191 22.8972 2.28801L22.7529 2.28718C22.6565 2.28885 22.5646 2.2752 22.4649 2.29693C22.3671 2.31197 22.2693 2.32283 22.173 2.33983L21.8885 2.42284C21.5164 2.55237 21.1568 2.7287 20.842 2.97132C20.1941 3.42872 19.6665 4.03403 19.2397 4.66776C18.8118 5.3026 18.4692 5.96502 18.2007 6.61796C18.1316 6.78009 18.077 6.94555 18.0157 7.10572C17.9884 7.18372 17.95 7.27202 17.933 7.33971C17.9074 7.42217 17.882 7.50406 17.8569 7.5854C17.8073 7.74753 17.7533 7.9077 17.7099 8.06341C17.6736 8.21829 17.638 8.36983 17.6029 8.51858C17.5218 8.81302 17.4976 9.1122 17.4461 9.38909C17.4154 9.66848 17.3881 9.93506 17.3669 10.1863C17.365 10.437 17.3508 10.6741 17.3589 10.8919C17.3728 11.11 17.3856 11.3103 17.3973 11.4914C17.4232 11.6713 17.4461 11.8321 17.4658 11.9719C17.4828 12.1131 17.5252 12.2262 17.5438 12.3229C17.589 12.5143 17.6129 12.6165 17.6129 12.6165L17.567 12.6338C17.567 12.6338 17.528 12.5354 17.4547 12.3507C17.4218 12.2571 17.3667 12.1446 17.3318 12.0042C17.2945 11.8644 17.2516 11.7031 17.2037 11.5226C17.1644 11.3401 17.1388 11.1345 17.1034 10.9114C17.0758 10.6875 17.0686 10.4434 17.0488 10.1821C17.0502 9.92197 17.0455 9.64285 17.0667 9.35037C17.1045 9.05927 17.1135 8.75146 17.1823 8.43195C17.2115 8.27178 17.2413 8.10826 17.2717 7.94141C17.3079 7.779 17.3525 7.61939 17.3937 7.45392C17.4149 7.37175 17.4363 7.28874 17.4583 7.20489C17.4828 7.10489 17.5146 7.03246 17.5427 6.94388C17.6029 6.77479 17.6561 6.59986 17.7243 6.42798C17.9842 5.73548 18.3514 5.03685 18.8219 4.37583C19.2957 3.71982 19.8709 3.08609 20.5977 2.61337C20.9531 2.36908 21.3623 2.1908 21.7863 2.06907L22.1122 2.0011C22.2234 1.98995 22.3354 1.98578 22.4465 1.97825C22.5554 1.96405 22.6738 1.98633 22.7872 1.99497L22.9579 2.01252C23.012 2.02199 23.0602 2.03926 23.112 2.05207L23.2641 2.09274L23.3404 2.11308C23.3866 2.12589 23.3967 2.13648 23.4268 2.14818L23.7279 2.28662C23.912 2.4078 24.0984 2.52451 24.248 2.68329C24.563 2.97968 24.8098 3.33819 24.9867 3.71954C25.3597 4.47806 25.5207 5.30148 25.5962 6.09761C25.6605 6.8968 25.6235 7.67984 25.4898 8.40688C25.4499 8.58906 25.4107 8.76845 25.3719 8.94534C25.3274 9.11721 25.2781 9.28156 25.2288 9.4448L25.192 9.56625L25.1711 9.63311L25.1491 9.69327C25.1193 9.77294 25.09 9.85205 25.0611 9.93061C25.0001 10.0866 24.9522 10.2437 24.8839 10.3897C24.6268 10.9791 24.3455 11.4992 24.051 11.9307C23.763 12.3658 23.4652 12.7118 23.2081 12.9822C22.9373 13.2441 22.7239 13.4455 22.5629 13.5589C22.405 13.6775 22.3206 13.741 22.3206 13.741L22.288 13.704Z" fill="#231F20"/>
</g>
<g id="Group_6">
<path id="Vector_11" d="M12.3725 24.3699C12.3725 24.3699 12.3603 24.4699 12.3374 24.6574C12.3243 24.751 12.3085 24.866 12.2892 25.0017C12.2692 25.137 12.2544 25.293 12.2032 25.4646C12.1096 25.8067 12.0193 26.2415 11.8176 26.6945C11.7717 26.8101 11.724 26.9293 11.6753 27.0521C11.6505 27.1137 11.6257 27.1758 11.6004 27.2393C11.5686 27.2992 11.5366 27.36 11.5043 27.4218C11.3736 27.6686 11.236 27.9279 11.0925 28.1987C10.9198 28.4642 10.773 28.7213 10.5672 28.9929C10.3755 29.2681 10.1535 29.5294 9.92259 29.7943C9.44765 30.3141 8.87715 30.7985 8.23786 31.2197C8.08075 31.3289 7.9125 31.4242 7.74174 31.5169C7.5746 31.6161 7.39633 31.6974 7.21916 31.7824C7.04478 31.8729 6.85285 31.9295 6.67095 32.0083C6.48042 32.0657 6.28988 32.1292 6.09266 32.169L5.7946 32.2247C5.69432 32.2398 5.59153 32.2387 5.48986 32.2473L5.33693 32.2579L5.18288 32.2468C5.08065 32.2353 4.97563 32.2409 4.87479 32.2147C4.46308 32.1584 4.06251 31.9543 3.75136 31.688C3.40789 31.4022 3.18922 31.0303 3.03351 30.6364C2.87361 30.2419 2.81595 29.8249 2.77751 29.4152C2.7335 28.5915 2.86553 27.7901 3.07055 27.0455C3.28115 26.3014 3.57447 25.6098 3.91905 24.9941C4.00373 24.8398 4.09733 24.693 4.18396 24.5454C4.23048 24.4696 4.26642 24.4041 4.32018 24.322C4.36753 24.2543 4.41461 24.1874 4.46113 24.1206C4.55528 23.988 4.64777 23.8576 4.7383 23.7298C4.83914 23.6036 4.93803 23.4802 5.03497 23.359C5.22244 23.1105 5.43331 22.9069 5.61744 22.6963C5.81159 22.4955 6.00993 22.3186 6.1935 22.1511C6.38849 21.9957 6.56287 21.8419 6.73697 21.7155C6.91358 21.5924 7.07152 21.474 7.22362 21.3812C7.53171 21.2007 7.77294 21.0628 7.9501 20.9901C8.12281 20.9124 8.21474 20.8706 8.21474 20.8706L8.23646 20.9149C8.23646 20.9149 8.15262 20.9698 7.99495 21.0723C7.83311 21.1662 7.61221 21.33 7.33671 21.5414C7.2044 21.6539 7.05815 21.7782 6.89882 21.9141C6.74171 22.0514 6.58599 22.2163 6.41245 22.3824C6.24782 22.5587 6.07929 22.752 5.89962 22.9526C5.73415 23.1651 5.53944 23.3754 5.37704 23.6186C5.29208 23.7373 5.20517 23.8587 5.11658 23.9824C5.03329 24.115 4.94861 24.2498 4.86226 24.3872C4.8188 24.4562 4.77535 24.5253 4.73133 24.5952C4.69234 24.6635 4.65306 24.732 4.6135 24.8011C4.53411 24.9446 4.44748 25.0875 4.37032 25.2373C4.06028 25.8371 3.77782 26.4903 3.55943 27.1895C3.34132 27.887 3.2012 28.6377 3.21039 29.3968C3.22571 29.7729 3.25719 30.1578 3.38115 30.5144C3.42405 30.7005 3.51486 30.8651 3.59341 31.0367L3.74606 31.2735C3.79676 31.3531 3.86529 31.4094 3.92379 31.4807C4.20068 31.7529 4.53021 31.9529 4.91045 32.035C5.28706 32.1075 5.6829 32.1103 6.06174 32.0225C6.825 31.8662 7.50496 31.4593 8.08381 31.0038C8.66935 30.5478 9.15711 30.0202 9.59891 29.5093C9.70643 29.3787 9.81256 29.2503 9.9173 29.1232C10.0209 28.9959 10.1103 28.8639 10.2087 28.7399C10.4026 28.4993 10.5758 28.2143 10.7371 27.9792C10.8872 27.7243 11.0315 27.4797 11.1683 27.2471C11.241 27.1327 11.302 27.0165 11.3547 26.8998C11.4104 26.7847 11.4644 26.6727 11.5171 26.5644C11.7458 26.1351 11.8675 25.7387 12.0026 25.4167C12.0742 25.2579 12.1096 25.1033 12.1469 24.9719C12.184 24.8401 12.2154 24.7281 12.2411 24.6376C12.2954 24.4565 12.3243 24.3601 12.3243 24.3601L12.3725 24.3699Z" fill="#231F20"/>
</g>
<g id="Group_7">
<path id="Vector_12" d="M16.2782 25.4537C16.2782 25.4537 16.318 25.5515 16.3924 25.7348C16.472 25.9145 16.5511 26.1969 16.6492 26.5607C16.7303 26.9248 16.8077 27.3747 16.8305 27.8964C16.8615 28.4176 16.835 29.0084 16.7523 29.6461C16.7358 29.8062 16.696 29.9659 16.6679 30.1308C16.6525 30.2129 16.6369 30.2959 16.6211 30.3798L16.6094 30.4427L16.5929 30.5104L16.562 30.6338C16.5205 30.799 16.4782 30.9653 16.428 31.1355C16.3704 31.3074 16.3116 31.4815 16.2523 31.6576C15.9929 32.3503 15.6221 33.0406 15.1558 33.693C14.6814 34.337 14.1199 34.9604 13.4101 35.419C13.0622 35.6549 12.6661 35.8354 12.2432 35.9276C12.0334 35.9869 11.8137 35.9908 11.5933 36L11.2641 35.9638C11.2323 35.9588 11.2178 35.9624 11.1719 35.9499L11.0961 35.9282L10.9443 35.8844C10.8936 35.8691 10.8434 35.8591 10.7922 35.839L10.6367 35.7666C10.5348 35.7159 10.422 35.6738 10.3356 35.6056C10.2443 35.5424 10.1504 35.4811 10.061 35.4142L9.8161 35.1883C9.51498 34.866 9.2562 34.5028 9.0768 34.1103C8.69685 33.3309 8.52971 32.4918 8.46063 31.6854C8.39712 30.8767 8.44169 30.0887 8.57512 29.3608C8.6052 29.1784 8.64921 29.0012 8.68487 28.8254C8.70632 28.7346 8.71635 28.6566 8.74643 28.558C8.77094 28.475 8.79518 28.3928 8.81941 28.3112C8.86928 28.148 8.91301 27.9883 8.96566 27.8301C9.02499 27.6719 9.08377 27.5162 9.14115 27.3638C9.24617 27.0546 9.39687 26.7858 9.51414 26.5167C9.64618 26.2551 9.7941 26.0178 9.92641 25.7941C10.078 25.5802 10.2094 25.3746 10.3482 25.1969C10.4933 25.0236 10.6211 24.8607 10.7487 24.7245C10.8827 24.5941 11.0025 24.4779 11.1064 24.3771C11.2084 24.2749 11.3134 24.2063 11.39 24.1431C11.5476 24.0225 11.6318 23.9581 11.6318 23.9581L11.6621 23.9968C11.6621 23.9968 11.5891 24.0718 11.4518 24.213C11.3864 24.2863 11.2919 24.3612 11.2047 24.4735C11.1156 24.5835 11.0134 24.7094 10.8986 24.8506C10.7955 24.9999 10.6816 25.1651 10.5574 25.3448C10.4384 25.5275 10.3287 25.7381 10.2016 25.9543C10.0905 26.1805 9.97656 26.4228 9.85928 26.6786C9.76095 26.9426 9.62808 27.2117 9.54618 27.5059C9.49994 27.6516 9.45258 27.7998 9.40411 27.9513C9.36121 28.1067 9.32528 28.2722 9.28433 28.4366C9.264 28.5193 9.24366 28.6026 9.22305 28.6864C9.20299 28.7536 9.19046 28.8488 9.17374 28.9296C9.14394 29.0987 9.1055 29.2686 9.08126 29.4433C8.97596 30.1413 8.92861 30.8854 8.969 31.65C9.00911 32.4127 9.15034 33.2033 9.47041 33.9289C9.61582 34.2991 9.83338 34.6351 10.086 34.9376L10.2869 35.1549C10.361 35.2195 10.4392 35.2788 10.5156 35.3421C10.5897 35.412 10.6757 35.4471 10.7574 35.4986L10.8813 35.5719C10.9262 35.5939 10.9788 35.6092 11.0273 35.6282L11.1758 35.6822L11.2499 35.7087C11.2538 35.7117 11.293 35.7173 11.3128 35.7212L11.6073 35.7747C11.8067 35.778 12.0092 35.7908 12.2084 35.7474L12.358 35.7231C12.4073 35.7112 12.4549 35.6933 12.5034 35.6786C12.5992 35.6457 12.6992 35.6229 12.792 35.5814C12.9761 35.4942 13.1616 35.4103 13.3288 35.293C14.0182 34.8549 14.5405 34.2111 14.9349 33.5468C15.3377 32.8824 15.6155 32.1815 15.8453 31.5149C15.8988 31.3481 15.9514 31.1834 16.0035 31.0213C16.0489 30.8522 16.0938 30.6857 16.138 30.5219L16.1715 30.3996C16.1759 30.3817 16.1851 30.3525 16.1857 30.3453L16.1985 30.2848C16.2152 30.2046 16.2319 30.1252 16.2484 30.0464C16.2784 29.8887 16.3205 29.7355 16.3392 29.5817C16.3854 29.2764 16.4381 28.9836 16.455 28.7017C16.4865 28.421 16.496 28.1535 16.503 27.9017C16.5158 27.6496 16.4938 27.4148 16.4946 27.1956C16.4826 26.9777 16.457 26.7786 16.4459 26.5967C16.3965 26.2395 16.3525 25.956 16.2982 25.7643C16.2548 25.5713 16.2314 25.4685 16.2314 25.4685L16.2782 25.4537Z" fill="#231F20"/>
</g>
<g id="Group_8">
<path id="Vector_13" d="M19.3513 13.5872C19.3513 13.5872 19.1931 13.5368 18.8956 13.4421C18.7477 13.3931 18.5641 13.3349 18.3424 13.2892C18.1218 13.2385 17.8697 13.1747 17.5802 13.1427C17.4362 13.1232 17.2847 13.1023 17.1256 13.0805C16.9654 13.0733 16.7978 13.066 16.6231 13.0582C16.4487 13.0446 16.2671 13.0532 16.0788 13.061C15.891 13.0691 15.696 13.0691 15.4972 13.1C14.6991 13.1786 13.8096 13.402 12.943 13.8379C12.8352 13.8934 12.7266 13.9491 12.6166 14.0054C12.5135 14.0722 12.409 14.1396 12.3037 14.2081C12.0853 14.3332 11.9023 14.5135 11.6981 14.6706C11.602 14.7561 11.5174 14.8555 11.4229 14.9452C11.3282 15.0355 11.2363 15.1293 11.1591 15.2374C11.0778 15.3413 10.9956 15.4458 10.9129 15.5514C10.8457 15.6625 10.7786 15.7748 10.7106 15.8876C10.1616 16.8506 9.98109 18.0314 10.2449 19.2022C10.4967 20.3721 11.1619 21.49 12.058 22.3995L12.2235 22.5742L12.4026 22.7352L12.7647 23.0566C13.026 23.2469 13.2726 23.4611 13.5542 23.6263C14.0913 24.0007 14.6782 24.2751 15.2969 24.5447C16.5136 25.0127 17.8529 25.2731 19.1521 25.1648C20.4466 25.069 21.7135 24.6425 22.6734 23.8792C23.1634 23.5149 23.5556 23.0424 23.8529 22.558C23.9208 22.4318 23.9997 22.321 24.059 22.1861C24.1164 22.0485 24.1735 21.912 24.2303 21.7758C24.2855 21.6655 24.3105 21.5126 24.3523 21.3844C24.3905 21.2513 24.4325 21.1195 24.4448 20.9825C24.564 20.4448 24.5222 19.9053 24.4718 19.3933C24.4156 19.1406 24.3913 18.8846 24.3039 18.6478C24.2679 18.5272 24.2323 18.408 24.1972 18.2899C24.1506 18.1754 24.1041 18.0618 24.0584 17.9498C23.6846 17.0523 23.1512 16.3057 22.5966 15.7263C22.4656 15.5728 22.3177 15.4461 22.1801 15.3177C22.0425 15.189 21.9102 15.0642 21.7689 14.9608C21.6313 14.8527 21.499 14.7491 21.3728 14.6499C21.2377 14.5633 21.1093 14.4803 20.987 14.4017C20.7464 14.2371 20.5138 14.1218 20.3137 14.0171C20.116 13.9076 19.938 13.8326 19.7928 13.7739C19.5045 13.6519 19.3513 13.5872 19.3513 13.5872ZM19.3691 13.5416C19.3691 13.5416 19.5243 13.6048 19.814 13.7235C19.9594 13.7806 20.138 13.8538 20.3394 13.9622C20.5413 14.0672 20.784 14.17 21.0316 14.3277C21.545 14.6121 22.1358 15.0213 22.7464 15.5748C23.3489 16.1324 23.9713 16.8556 24.415 17.7904C24.469 17.908 24.5234 18.0267 24.5785 18.1462C24.6209 18.2715 24.664 18.398 24.7075 18.5256C24.805 18.7782 24.8392 19.0545 24.9039 19.3273C24.9256 19.466 24.9348 19.608 24.9476 19.7507C24.9624 19.8933 24.9721 20.037 24.9604 20.183C24.9546 20.3284 24.9484 20.4752 24.9426 20.6228C24.9181 20.7685 24.8933 20.9159 24.8685 21.0638C24.8498 21.2131 24.8005 21.3566 24.7548 21.5011C24.7025 21.648 24.6791 21.7883 24.6016 21.9418C24.5384 22.0747 24.4746 22.2084 24.4105 22.3432C24.3429 22.4775 24.2448 22.6115 24.1623 22.7452C23.8052 23.2661 23.3671 23.7346 22.8311 24.092C21.7762 24.823 20.4845 25.2272 19.1636 25.3163L18.9157 25.3394L18.6663 25.3431L18.166 25.3467C17.8337 25.3172 17.4969 25.3158 17.1663 25.2531C16.4944 25.1815 15.8487 24.999 15.1935 24.7935L14.7264 24.6124C14.5704 24.5547 14.4152 24.4926 14.2617 24.4138L13.7996 24.1915C13.6495 24.1118 13.5054 24.0227 13.3584 23.9383C13.06 23.7756 12.7954 23.5617 12.5157 23.3708L12.1257 23.0472L11.9321 22.8839L11.7519 22.7059C10.785 21.7714 10.0507 20.5916 9.74794 19.315C9.57969 18.681 9.56966 18.0189 9.6535 17.3915C9.72426 16.76 9.96688 16.16 10.2541 15.6539C10.336 15.5218 10.4173 15.3912 10.4978 15.2611C10.5914 15.1452 10.6842 15.0302 10.7764 14.9163C10.8644 14.7981 10.9672 14.6956 11.0725 14.5979C11.1767 14.4984 11.2781 14.3976 11.3864 14.3079C11.616 14.1446 11.8249 13.9597 12.0656 13.834C12.182 13.7658 12.2976 13.6981 12.4118 13.6312C12.5319 13.5761 12.6505 13.5218 12.7681 13.4675C13.7155 13.0471 14.6609 12.9081 15.4816 12.8783C16.3055 12.8568 17.0209 12.9315 17.5956 13.051C17.8864 13.0933 18.1371 13.1733 18.3585 13.2257C18.5808 13.275 18.7644 13.3365 18.9126 13.3883C19.2101 13.4883 19.3691 13.5416 19.3691 13.5416Z" fill="#060303"/>
</g>
<g id="Group_9">
<path id="Vector_14" d="M13.3443 23.7441C13.3443 23.7441 13.5925 17.0219 17.0879 13.0858C17.0879 13.0858 11.9786 17.3591 13.3443 23.7441Z" fill="#060303" stroke="#060303" stroke-width="0.59" stroke-miterlimit="10" stroke-linejoin="round"/>
</g>
<g id="Group_10">
<path id="Vector_15" d="M10.0557 13.1168C10.0557 13.1168 9.97741 13.1839 9.83089 13.3095C9.75679 13.3716 9.64927 13.4268 9.53088 13.5037C9.4696 13.5385 9.39773 13.5636 9.32419 13.597C9.25037 13.6307 9.17126 13.6644 9.0824 13.6845C8.73642 13.7962 8.28683 13.8458 7.78207 13.7889C7.27704 13.736 6.71686 13.582 6.15138 13.3148C5.58534 13.0499 5.01151 12.6791 4.47054 12.2089C3.93236 11.7396 3.41535 11.1771 3.00253 10.5033C2.79806 10.1671 2.62591 9.79966 2.51337 9.40466C2.40251 9.01105 2.35682 8.58096 2.44624 8.1581C2.53538 7.73636 2.78999 7.34665 3.12036 7.07561C3.46605 6.79482 3.87832 6.64273 4.30034 6.56445C5.1494 6.41932 6.04358 6.65304 6.71519 7.15863C6.88678 7.28119 7.03637 7.42716 7.18261 7.57591C7.31716 7.7202 7.45671 7.88288 7.57204 8.05197C7.68708 8.22356 7.79071 8.40658 7.85116 8.61104C7.913 8.81439 7.91968 9.0417 7.85868 9.24672C7.73416 9.66205 7.42579 9.94674 7.15197 10.193C6.86867 10.4406 6.5578 10.6763 6.18202 10.7652C5.8029 10.8576 5.40372 10.7041 5.15998 10.4601L5.06499 10.371L4.98198 10.2721C4.93128 10.2066 4.87473 10.1515 4.82989 10.0793C4.78615 10.0058 4.74298 9.93281 4.70008 9.86094C4.66888 9.7835 4.64241 9.70523 4.61456 9.62862C4.52236 9.31023 4.60314 8.96481 4.7895 8.73361C4.8388 8.67873 4.88783 8.62497 4.93574 8.57176C4.99229 8.52329 5.03909 8.48123 5.09368 8.43889C5.20622 8.35532 5.32322 8.28791 5.44439 8.23972C5.68674 8.14139 5.96363 8.15949 6.15333 8.28429C6.25779 8.32969 6.32464 8.41967 6.40598 8.48012C6.47172 8.56034 6.53607 8.62553 6.58371 8.70631C6.78594 9.01384 6.83525 9.3158 6.78873 9.50661C6.73719 9.69799 6.63747 9.75899 6.64722 9.76428C6.63747 9.75955 6.73469 9.69381 6.77814 9.50439C6.81742 9.31636 6.75613 9.02025 6.55056 8.73138C6.50459 8.65756 6.43161 8.58764 6.36921 8.51633C6.28927 8.46201 6.22213 8.37761 6.12352 8.34028C5.94246 8.23081 5.69732 8.22468 5.47726 8.32245C5.36667 8.3712 5.26054 8.43805 5.16082 8.51689C5.11151 8.55811 5.05886 8.60826 5.01262 8.65088C4.97084 8.70102 4.92794 8.75199 4.88476 8.80353C4.72515 9.01913 4.66136 9.31218 4.74799 9.59185C4.77473 9.65954 4.80147 9.72807 4.82849 9.79743C4.86749 9.86039 4.90677 9.92362 4.94633 9.98797C4.98644 10.0518 5.04856 10.1111 5.09926 10.1738L5.17642 10.2623L5.26472 10.3417C5.49676 10.5596 5.82268 10.6721 6.14135 10.5905C6.46114 10.5092 6.74973 10.288 7.01631 10.0437C7.28317 9.79325 7.55755 9.5289 7.6531 9.18905C7.757 8.85172 7.60742 8.4868 7.38986 8.17788C7.27955 8.01882 7.15726 7.87731 7.01659 7.72856C6.88037 7.59234 6.73886 7.45557 6.57869 7.34303C5.95165 6.87756 5.1221 6.66892 4.34157 6.80652C3.95632 6.87366 3.56996 7.01823 3.27468 7.25556C2.97105 7.50376 2.75405 7.83386 2.66965 8.20796C2.58831 8.58207 2.6248 8.97623 2.7262 9.34588C2.82926 9.71665 2.99027 10.069 3.18526 10.3941C3.57943 11.0404 4.06969 11.6039 4.58893 12.0755C5.10845 12.5457 5.66278 12.9201 6.21127 13.1906C6.76003 13.4597 7.30072 13.6307 7.79266 13.7015C8.28488 13.7747 8.72723 13.7427 9.07125 13.6449C9.15984 13.6285 9.23867 13.5978 9.31249 13.5675C9.38603 13.5371 9.45845 13.5148 9.52001 13.4825C9.63868 13.4112 9.7476 13.3605 9.82392 13.3014C9.9749 13.1808 10.0557 13.1168 10.0557 13.1168Z" fill="#060303"/>
</g>
<g id="Group_11">
<path id="Vector_16" d="M8.47261 16.2567C8.47261 16.2567 8.42302 16.1511 8.33026 15.9531C8.20881 15.7748 8.02997 15.5004 7.69096 15.2706C7.3631 15.0335 6.9096 14.8218 6.35972 14.6979C5.81068 14.5736 5.16888 14.5332 4.48083 14.6068C3.79641 14.6839 3.05321 14.8728 2.35708 15.2374C1.65344 15.5993 1.0264 16.1793 0.628892 16.9364C0.236399 17.6826 0.0907123 18.6281 0.364538 19.4551C0.450334 19.6774 0.546716 19.8543 0.676804 20.0426C0.802714 20.2276 0.948958 20.4003 1.10579 20.5632C1.42223 20.8858 1.78826 21.1655 2.1919 21.3635C2.59247 21.5613 3.039 21.6806 3.47355 21.6271C3.57913 21.6014 3.68944 21.5948 3.79084 21.5558L3.94321 21.4978C3.96521 21.4903 4.00143 21.475 4.01201 21.4736L4.08722 21.4301L4.23765 21.3443L4.363 21.2471C4.44935 21.1892 4.52373 21.102 4.60368 21.0284C4.90703 20.7084 5.12988 20.3153 5.29952 19.9114C5.46638 19.5058 5.5831 19.0799 5.61708 18.6576C5.63992 18.447 5.62962 18.2367 5.59145 18.0428C5.57808 17.9974 5.57 17.9423 5.55357 17.9055C5.53295 17.857 5.51373 17.8021 5.48978 17.7693C5.45134 17.6904 5.38253 17.62 5.31568 17.5601C5.01678 17.3317 4.58223 17.3609 4.2162 17.464C3.84822 17.5762 3.46186 17.7105 3.256 17.9916C3.03538 18.271 2.94902 18.6311 2.93426 18.9676C2.92702 19.1376 2.93733 19.3047 2.96602 19.4643C2.98078 19.5398 3.00223 19.6298 3.02424 19.6863C3.06184 19.7582 3.09415 19.839 3.14736 19.8758C3.3457 20.0824 3.68025 20.1042 3.94404 20.0599C4.2148 20.012 4.46885 19.9078 4.63933 19.7448C4.80898 19.5816 4.89672 19.3638 4.9243 19.1677C4.9516 18.9704 4.92848 18.7818 4.84992 18.6473C4.76413 18.5105 4.59643 18.5348 4.50061 18.5668C4.39615 18.5966 4.31871 18.6303 4.26745 18.6534C4.21564 18.6763 4.1889 18.688 4.1889 18.688C4.1889 18.688 4.21508 18.6754 4.26606 18.6509C4.31704 18.6264 4.39281 18.5899 4.49754 18.5565C4.54964 18.5387 4.61064 18.5253 4.67917 18.5261C4.74853 18.5286 4.82346 18.5648 4.87082 18.6362C4.95661 18.7735 4.98698 18.9671 4.96525 19.1727C4.94241 19.378 4.8619 19.6061 4.68223 19.7914C4.50228 19.9724 4.24405 20.0872 3.95964 20.1474C3.68025 20.1972 3.32647 20.2084 3.05794 19.9529C2.98162 19.8891 2.95348 19.8159 2.91393 19.7443C2.87409 19.6498 2.85961 19.5769 2.83927 19.4891C2.80557 19.3192 2.79136 19.1429 2.79609 18.9632C2.80584 18.6066 2.88718 18.2178 3.13092 17.8946C3.24931 17.735 3.42286 17.5974 3.60253 17.5124C3.78081 17.4253 3.96967 17.3506 4.16773 17.2915C4.36578 17.2336 4.57582 17.1924 4.7956 17.1971C5.01344 17.2016 5.24715 17.2578 5.43936 17.4007C5.53045 17.4785 5.61402 17.5606 5.67335 17.6723C5.70901 17.7283 5.72405 17.7751 5.74578 17.825C5.77224 17.8863 5.77865 17.9386 5.79564 17.9963C5.84188 18.2222 5.85191 18.4506 5.82962 18.6749C5.79564 19.1256 5.67641 19.5688 5.50426 19.9955C5.32849 20.4201 5.09812 20.8354 4.77053 21.1858C4.68223 21.2686 4.60702 21.3588 4.50256 21.4321L4.35353 21.5457L4.20366 21.6329C3.98304 21.7546 3.74822 21.824 3.5028 21.8633C3.00892 21.9262 2.51475 21.795 2.08326 21.5839C1.65037 21.368 1.2668 21.0699 0.93503 20.7282C0.770679 20.5554 0.617471 20.3719 0.48404 20.1741C0.35061 19.9822 0.229436 19.7493 0.152553 19.542C-0.149964 18.6097 0.0241366 17.6303 0.440306 16.8378C0.857312 16.0394 1.54675 15.4361 2.2724 15.0801C3.00641 14.7126 3.76382 14.5371 4.46718 14.4694C5.17166 14.4037 5.82628 14.4669 6.38089 14.6123C6.93634 14.7561 7.39068 14.9867 7.71548 15.2377C8.05114 15.4815 8.22413 15.7653 8.34001 15.9486C8.42637 16.1494 8.47261 16.2567 8.47261 16.2567Z" fill="#060303"/>
</g>
<g id="Group_12">
<path id="Vector_17" d="M7.96846 13.7951C7.22613 14.9454 7.50341 16.5016 8.53849 17.6468C8.53849 17.6468 8.76018 16.5964 9.61465 15.1129C10.4691 13.6295 11.8099 12.8847 11.8099 12.8847C11.3307 12.7292 10.8393 12.6469 10.3662 12.6461C9.37622 12.6463 8.4732 13.0079 7.96846 13.7951Z" fill="url(#paint1_linear_179_1530)"/>
</g>
<g id="Group_13">
<path id="Vector_18" d="M11.8101 12.8856C10.327 12.3973 8.71536 12.6331 7.96763 13.7947C7.2274 14.9449 7.50418 16.5018 8.53859 17.6471C8.53859 17.6471 8.7599 16.596 9.61544 15.1127C10.4702 13.6286 11.8101 12.8856 11.8101 12.8856Z" stroke="#060303" stroke-width="0.3" stroke-miterlimit="10"/>
</g>
</g>
</g>
<defs>
<linearGradient id="paint0_linear_179_1530" x1="11.376" y1="14.5311" x2="23.2301" y2="23.7034" gradientUnits="userSpaceOnUse">
<stop stop-color="#F8BE14"/>
<stop offset="0.35" stop-color="#F7D425"/>
<stop offset="1" stop-color="#F7971D"/>
</linearGradient>
<linearGradient id="paint1_linear_179_1530" x1="7.99955" y1="13.746" x2="10.1935" y2="15.2802" gradientUnits="userSpaceOnUse">
<stop stop-color="#F8BE14"/>
<stop offset="0.35" stop-color="#F7D425"/>
<stop offset="1" stop-color="#F7971D"/>
</linearGradient>
</defs>
</svg>
