<svg width="921" height="506" viewBox="0 0 921 506" fill="none" xmlns="http://www.w3.org/2000/svg">
<g id="Group 8">
<g id="Group">
<path id="Vector" d="M382.007 326.252C382.007 326.252 384.141 323.521 386.503 320.963C388.813 318.365 391.127 315.764 391.127 315.764C391.308 315.568 391.611 315.548 391.811 315.725C392.008 315.902 392.027 316.208 391.85 316.409L391.823 316.436C391.823 316.436 389.43 318.935 387.037 321.434C384.601 323.89 382.361 326.55 382.361 326.55C382.279 326.649 382.133 326.66 382.035 326.578C381.941 326.495 381.929 326.35 382.007 326.252Z" fill="#060303"/>
</g>
<path id="Vector_2" d="M411.362 296.232C411.362 296.232 412.713 295.106 414.74 293.416C416.727 291.699 419.585 289.574 422.375 287.408C428.019 283.153 433.905 279.227 433.905 279.227C434.525 278.815 435.36 278.978 435.773 279.6C436.186 280.215 436.019 281.048 435.403 281.46C435.395 281.464 435.375 281.476 435.375 281.476C435.375 281.476 429.473 285.239 423.794 289.328C418.15 293.42 412.614 297.786 412.614 297.786C412.181 298.127 411.553 298.052 411.211 297.62C410.877 297.195 410.949 296.577 411.362 296.232Z" fill="#060303"/>
<path id="Vector_3" d="M457.921 265.823C457.921 265.823 459.476 265.062 461.808 263.911C464.097 262.724 467.357 261.351 470.555 259.947C473.808 258.679 477.03 257.339 479.521 256.53L483.64 255.097C484.577 254.771 485.591 255.291 485.906 256.26C486.221 257.23 485.719 258.285 484.783 258.611L484.767 258.615L484.697 258.639C484.697 258.639 483.081 259.186 480.652 260.007C478.207 260.772 475.032 262.064 471.834 263.275C468.694 264.639 465.55 265.887 463.195 267.034C460.84 268.125 459.27 268.853 459.27 268.853C458.458 269.231 457.506 268.853 457.14 268.012C456.783 267.183 457.132 266.213 457.921 265.823Z" fill="#060303"/>
<path id="Vector_4" d="M511.672 249.314C511.672 249.314 513.357 249.126 515.885 248.848C518.374 248.51 521.878 248.36 525.31 248.127C528.745 248.067 532.18 247.924 534.753 248.052C537.331 248.119 539.05 248.161 539.05 248.161C540.153 248.187 541.026 249.089 540.999 250.175C540.969 251.261 540.053 252.114 538.947 252.084H538.931L538.836 252.08C538.836 252.08 537.162 252.028 534.658 251.941C532.153 251.791 528.806 251.908 525.463 251.934C522.131 252.137 518.845 252.235 516.295 252.558C513.763 252.817 512.078 252.99 512.078 252.99C511.044 253.095 510.118 252.359 510.01 251.34C509.903 250.333 510.646 249.427 511.672 249.314Z" fill="#060303"/>
<path id="Vector_5" d="M567.498 252.069C567.498 252.069 569.162 252.526 571.654 253.217C574.138 253.839 577.505 255.015 580.832 256.091C584.106 257.32 587.402 258.48 589.797 259.551C592.211 260.567 593.824 261.245 593.824 261.245C594.789 261.651 595.255 262.787 594.859 263.787C594.466 264.778 593.377 265.256 592.413 264.862L592.343 264.83C592.343 264.83 590.761 264.18 588.39 263.2C586.038 262.169 582.807 261.057 579.604 259.881C576.354 258.861 573.193 257.773 570.651 257.151C568.151 256.481 566.487 256.031 566.487 256.031C565.426 255.75 564.788 254.63 565.064 253.534C565.34 252.442 566.425 251.784 567.486 252.065L567.498 252.069Z" fill="#060303"/>
<path id="Vector_6" d="M618.521 274.271C618.521 274.271 624.455 277.997 630.254 282.131C636.005 286.254 641.51 290.678 641.51 290.678C642.073 291.13 642.165 291.951 641.712 292.515C641.264 293.066 640.458 293.162 639.898 292.729C639.898 292.729 634.342 288.48 628.575 284.536C622.839 280.636 616.787 277.013 616.787 277.013C616.021 276.553 615.77 275.557 616.231 274.791C616.691 274.021 617.688 273.772 618.454 274.228C618.461 274.236 618.469 274.24 618.477 274.244L618.521 274.271Z" fill="#060303"/>
<path id="Vector_7" d="M662.657 309.279L672.388 318.798C677.087 323.742 681.786 328.687 681.786 328.687C682.091 329.004 682.067 329.503 681.735 329.794C681.406 330.084 680.898 330.066 680.593 329.752L680.574 329.729L671.152 319.991C666.222 315.3 661.289 310.605 661.289 310.605C660.91 310.242 660.902 309.653 661.277 309.282C661.652 308.912 662.262 308.905 662.645 309.267L662.657 309.279Z" fill="#060303"/>
<path id="Vector_8" d="M699.243 350.268C699.243 350.268 703.449 355.739 707.795 361.12C708.881 362.467 709.928 363.848 711.017 365.03C712.083 366.243 713.076 367.37 713.924 368.341C715.628 370.274 716.761 371.566 716.761 371.566L716.792 371.597C717.095 371.949 717.064 372.481 716.718 372.79C716.371 373.096 715.842 373.064 715.535 372.716L715.531 372.708C715.531 372.708 714.395 371.389 712.694 369.417C711.842 368.431 710.85 367.28 709.784 366.044C708.694 364.83 707.663 363.441 706.593 362.087C702.297 356.671 698.142 351.122 698.142 351.122C697.912 350.816 697.966 350.374 698.27 350.143C698.573 349.908 699.005 349.971 699.243 350.268Z" fill="#060303"/>
<path id="Vector_9" d="M737.526 390.179C737.526 390.179 738.932 391.196 741.046 392.716C742.111 393.447 743.308 394.436 744.687 395.228C746.046 396.073 747.495 396.969 748.947 397.866C750.411 398.738 751.96 399.47 753.37 400.226C754.772 401.001 756.123 401.629 757.312 402.091C759.659 403.084 761.227 403.747 761.227 403.747L761.309 403.783C761.878 404.021 762.149 404.692 761.917 405.283C761.688 405.87 761.038 406.155 760.472 405.914L760.461 405.91C760.461 405.91 758.857 405.211 756.456 404.165C755.236 403.675 753.854 403.02 752.428 402.212C750.988 401.42 749.415 400.656 747.917 399.747C746.43 398.806 744.946 397.862 743.556 396.977C742.127 396.129 740.973 395.156 739.904 394.408C737.809 392.86 736.411 391.831 736.411 391.831C735.973 391.51 735.868 390.882 736.178 390.428C736.484 389.974 737.088 389.865 737.526 390.179Z" fill="#060303"/>
<path id="Vector_10" d="M788.206 407.648C788.206 407.648 789.996 407.546 792.568 407.25C795.107 406.972 798.533 406.351 801.878 405.547C808.584 403.905 814.868 401.134 814.868 401.134C815.61 400.809 816.495 401.094 816.854 401.774C817.209 402.45 816.894 403.266 816.156 403.595L816.144 403.598L816.112 403.613C816.112 403.613 809.573 406.387 802.584 408.003C799.087 408.792 795.566 409.392 792.839 409.648C790.155 409.922 788.417 409.995 788.417 409.995L788.345 409.999C787.635 410.028 787.037 409.527 787.001 408.877C786.969 408.233 787.508 407.689 788.206 407.648Z" fill="#060303"/>
<path id="Vector_11" d="M837.589 386.044C837.589 386.044 838.931 384.897 840.944 383.177C843.013 381.489 845.465 379.082 848.017 376.711C853.022 371.835 857.695 366.628 857.695 366.628C858.39 365.854 859.584 365.786 860.367 366.477C861.146 367.168 861.217 368.36 860.519 369.134L860.499 369.154C860.499 369.154 855.674 374.38 850.502 379.281C847.858 381.672 845.226 384.166 843.165 385.798C841.132 387.482 839.774 388.61 839.774 388.61C839.055 389.206 837.992 389.106 837.393 388.399C836.798 387.688 836.89 386.64 837.589 386.044Z" fill="#060303"/>
<path id="Vector_12" d="M874.375 344.793C874.375 344.793 878.382 339.151 882.393 333.505C886.17 327.77 889.947 322.038 889.947 322.038L889.983 321.98C890.641 320.985 891.988 320.702 893.003 321.343C894.014 321.984 894.303 323.309 893.653 324.3L893.641 324.311L885.889 335.914C881.83 341.525 877.776 347.139 877.776 347.139C877.11 348.06 875.814 348.274 874.875 347.625C873.943 346.976 873.721 345.71 874.375 344.793Z" fill="#060303"/>
<path id="Vector_13" d="M904.259 298.595L910.611 286.015C913.647 279.691 916.682 273.358 916.682 273.358L916.701 273.318C917.268 272.134 918.637 271.658 919.756 272.262C920.874 272.863 921.323 274.313 920.752 275.501L920.745 275.513C920.745 275.513 917.641 281.886 914.533 288.255C911.315 294.523 908.101 300.791 908.101 300.791C907.526 301.915 906.199 302.329 905.141 301.717C904.088 301.113 903.692 299.715 904.259 298.595Z" fill="#060303"/>
<g id="Group 2">
<g id="Group_2">
<path id="Vector_14" d="M143.958 230.084C127.915 273.274 160.162 325.225 215.843 345.854C271.524 366.483 329.778 348.202 345.821 305.012C361.696 261.692 329.617 209.87 273.936 189.242C258.419 183.384 242.558 180.735 227.631 180.679C189.061 180.776 155.506 198.921 143.958 230.084Z" fill="url(#paint0_linear_179_1530)"/>
</g>
<g id="Group_3">
<path id="Vector_15" d="M303.369 205.115C303.369 205.115 299.3 299.303 249.999 353.306C249.999 353.306 322.634 292.72 303.369 205.115Z" fill="#060303" stroke="#060303" stroke-width="0.59" stroke-miterlimit="10" stroke-linejoin="round"/>
</g>
<g id="Group_4">
<path id="Vector_16" d="M261.886 151.366C261.886 151.366 262.29 149.975 263.045 147.37C263.442 146.077 263.937 144.482 264.514 142.607C265.076 140.729 265.886 138.596 266.243 136.12C267.1 131.185 268.742 125.46 269.265 118.505C269.465 116.788 269.674 115.016 269.886 113.192C269.992 112.285 270.102 111.357 270.216 110.426C270.243 109.483 270.271 108.524 270.302 107.558C270.412 103.687 270.534 99.6205 270.66 95.3768C270.467 91.2942 270.534 86.5004 269.968 82.1153C269.693 79.8677 269.642 77.5808 269.277 75.2507C268.951 72.9167 268.621 70.5473 268.283 68.1465C266.66 58.6061 264.507 48.5273 260.499 38.6686C256.613 28.8492 250.856 19.0023 242.192 11.9452C233.822 4.63661 221.972 1.17093 211.276 4.46372C208.722 5.06098 206.282 6.34587 203.842 7.53253C202.655 8.1848 201.563 9.03354 200.427 9.76833L198.745 10.9078L197.209 12.2674C192.898 15.5995 189.523 20.0239 186.305 24.3658C180.136 33.3679 175.873 43.4703 172.977 53.5412C170.081 63.6356 168.316 73.7026 167.507 83.3452C167.181 85.7499 167.2 88.1429 167.055 90.4887C167.004 91.6675 166.949 92.8345 166.894 93.9898C166.827 94.9132 166.878 96.2766 166.866 97.3847C166.87 99.7148 166.874 102.006 166.878 104.257C166.933 106.477 167.149 108.572 167.267 110.678C167.754 119.071 169.283 126.768 170.58 133.542C171.48 136.867 172.214 140.03 173.091 142.894C174.057 145.731 174.949 148.336 175.755 150.694C177.641 155.299 179.169 158.942 180.517 161.264C181.735 163.669 182.387 164.954 182.387 164.954L181.81 165.339C181.81 165.339 180.969 164.16 179.385 161.944C177.704 159.775 175.739 156.301 173.232 151.822C172.065 149.547 170.965 146.938 169.692 144.116C168.529 141.26 167.483 138.085 166.25 134.725C164.171 127.872 162.246 120.045 161.232 111.2C160.988 109.004 160.642 106.713 160.466 104.446C160.336 102.198 160.206 99.9113 160.077 97.5812C160.037 96.3631 159.884 95.3768 159.935 93.9348C159.959 92.7245 159.982 91.5064 160.01 90.2765C160.096 87.8168 160.022 85.3138 160.297 82.7951C160.815 72.6731 162.756 62.0403 166.1 51.4468C169.519 40.9005 174.285 30.252 181.354 20.7744C188.576 11.5994 198.179 2.98629 210.58 0.730847C216.415 -0.440096 222.679 -0.275064 228.321 1.74462C233.972 3.53639 239.198 6.50304 243.54 10.3184C252.495 17.7213 258.844 27.3914 263.901 37.1204C268.825 46.9595 272.302 57.1522 274.271 67.0777C275.092 72.0601 275.894 76.9207 276.145 81.7342C276.629 86.6183 276.448 90.862 276.554 95.4082C276.228 99.7973 275.913 104.002 275.619 108.006C275.54 109.004 275.466 109.986 275.387 110.961C275.21 111.919 275.029 112.866 274.856 113.801C274.503 115.668 274.161 117.479 273.831 119.232C272.801 126.277 270.491 132.226 268.99 137.087C268.287 139.562 267.226 141.55 266.432 143.342C265.607 145.126 264.907 146.643 264.342 147.869C263.163 150.309 262.534 151.61 262.534 151.61L261.886 151.366Z" fill="#231F20"/>
</g>
<g id="Group_5">
<path id="Vector_17" d="M315.206 191.194C315.206 191.194 316.236 190.121 318.165 188.105C320.208 186.18 322.802 183.068 325.988 179.111C327.442 176.985 329.203 174.765 330.928 172.219C332.507 169.559 334.476 166.879 336.154 163.735C337.894 160.635 339.717 157.334 341.38 153.708C343.218 150.175 344.704 146.25 346.362 142.218C347.25 140.226 347.851 138.069 348.633 135.939C349.006 134.87 349.38 133.79 349.757 132.694L350.044 131.876C350.087 131.782 350.193 131.358 350.264 131.114L350.747 129.389C351.399 127.09 352.067 124.748 352.743 122.367C353.289 120.033 353.847 117.66 354.409 115.255C356.468 105.518 358.189 95.0269 358.138 84.068C358.189 73.168 356.539 61.5961 351.38 51.2895C350.209 48.6568 348.57 46.2953 346.979 43.9062C346.154 42.7314 345.112 41.7333 344.193 40.637C343.714 40.1066 343.266 39.5408 342.759 39.0417L341.12 37.6625C339.03 35.6939 336.488 34.3776 334.051 32.9709L330.102 31.4817C329.831 31.3874 329.316 31.1634 329.25 31.1713L328.157 30.9591L325.973 30.5308C325.25 30.4129 324.499 30.2164 323.8 30.1614L321.764 30.1496C320.405 30.1732 319.108 29.9807 317.701 30.2872C316.322 30.4993 314.943 30.6526 313.583 30.8923L309.572 32.0632C304.322 33.8904 299.249 36.3776 294.809 39.8001C285.669 46.2521 278.227 54.7905 272.207 63.7298C266.172 72.6847 261.339 82.0287 257.551 91.2391C256.577 93.5259 255.806 95.86 254.942 98.1193C254.557 99.2196 254.015 100.465 253.775 101.42C253.413 102.583 253.056 103.738 252.702 104.886C252.003 107.173 251.241 109.432 250.628 111.628C250.117 113.813 249.614 115.951 249.119 118.049C247.975 122.202 247.633 126.422 246.906 130.328C246.474 134.269 246.089 138.03 245.791 141.574C245.763 145.11 245.563 148.454 245.677 151.527C245.873 154.604 246.054 157.429 246.219 159.983C246.584 162.521 246.906 164.788 247.185 166.761C247.425 168.753 248.022 170.348 248.286 171.712C248.922 174.411 249.26 175.853 249.26 175.853L248.612 176.097C248.612 176.097 248.062 174.71 247.028 172.105C246.565 170.785 245.787 169.197 245.295 167.217C244.769 165.244 244.164 162.969 243.488 160.423C242.934 157.849 242.572 154.949 242.073 151.802C241.684 148.643 241.582 145.201 241.303 141.515C241.323 137.845 241.256 133.908 241.555 129.782C242.089 125.676 242.215 121.334 243.185 116.827C243.598 114.568 244.018 112.261 244.447 109.907C244.958 107.617 245.586 105.365 246.168 103.031C246.466 101.872 246.769 100.701 247.079 99.5182C247.425 98.1075 247.873 97.0859 248.27 95.8364C249.119 93.4513 249.869 90.9837 250.832 88.5592C254.498 78.7909 259.677 68.9361 266.313 59.6118C272.997 50.3582 281.111 41.419 291.363 34.7509C296.377 31.3049 302.149 28.7901 308.129 27.073L312.727 26.1142C314.295 25.957 315.874 25.8981 317.442 25.792C318.978 25.5916 320.648 25.9059 322.248 26.0278L324.656 26.2753C325.419 26.4089 326.098 26.6525 326.829 26.8333L328.975 27.407L330.051 27.6938C330.704 27.8745 330.845 28.0239 331.269 28.1889L335.517 30.1418C338.114 31.851 340.743 33.4974 342.853 35.7372C347.297 39.918 350.779 44.975 353.274 50.3543C358.535 61.0539 360.806 72.669 361.871 83.8991C362.779 95.1723 362.256 106.218 360.37 116.473C359.808 119.043 359.254 121.574 358.708 124.069C358.079 126.493 357.384 128.811 356.688 131.114L356.17 132.827L355.875 133.77L355.564 134.619C355.144 135.743 354.731 136.859 354.323 137.967C353.462 140.167 352.786 142.383 351.824 144.442C348.197 152.757 344.228 160.093 340.075 166.179C336.012 172.317 331.812 177.197 328.185 181.013C324.366 184.706 321.356 187.547 319.084 189.146C316.857 190.82 315.666 191.716 315.666 191.716L315.206 191.194Z" fill="#231F20"/>
</g>
<g id="Group_6">
<path id="Vector_18" d="M175.34 341.644C175.34 341.644 175.167 343.055 174.845 345.699C174.66 347.02 174.436 348.642 174.165 350.556C173.882 352.466 173.674 354.666 172.951 357.087C171.631 361.912 170.358 368.046 167.513 374.435C166.864 376.065 166.192 377.747 165.505 379.48C165.155 380.348 164.805 381.225 164.448 382.12C164 382.965 163.548 383.822 163.092 384.694C161.249 388.176 159.308 391.834 157.285 395.653C154.848 399.398 152.778 403.024 149.874 406.856C147.171 410.738 144.039 414.424 140.781 418.16C134.082 425.492 126.035 432.326 117.017 438.267C114.801 439.807 112.427 441.151 110.019 442.459C107.661 443.858 105.146 445.006 102.647 446.204C100.187 447.481 97.4801 448.279 94.9143 449.391C92.2266 450.2 89.539 451.096 86.757 451.658L82.5526 452.444C81.138 452.656 79.6881 452.64 78.2539 452.762L76.0967 452.911L73.9238 452.754C72.4817 452.593 71.0003 452.672 69.5779 452.302C63.7704 451.509 58.12 448.628 53.7309 444.872C48.886 440.84 45.8015 435.595 43.605 430.039C41.3495 424.475 40.5362 418.593 39.9939 412.812C39.3731 401.193 41.2356 389.889 44.1276 379.386C47.0982 368.89 51.2358 359.134 56.0964 350.45C57.2909 348.273 58.6111 346.202 59.8332 344.12C60.4894 343.051 60.9962 342.128 61.7546 340.968C62.4226 340.014 63.0867 339.071 63.7429 338.128C65.071 336.257 66.3755 334.418 67.6525 332.615C69.075 330.835 70.4699 329.094 71.8373 327.385C74.4817 323.88 77.4562 321.007 80.0535 318.037C82.7923 315.204 85.59 312.709 88.1794 310.347C90.9299 308.155 93.3897 305.986 95.8455 304.202C98.3367 302.465 100.565 300.795 102.71 299.486C107.056 296.94 110.459 294.995 112.958 293.97C115.394 292.873 116.691 292.284 116.691 292.284L116.997 292.909C116.997 292.909 115.814 293.683 113.59 295.129C111.307 296.453 108.192 298.763 104.305 301.746C102.439 303.333 100.376 305.086 98.1285 307.003C95.9123 308.94 93.7158 311.267 91.2679 313.608C88.9456 316.096 86.5684 318.823 84.034 321.652C81.6999 324.65 78.9533 327.617 76.6625 331.047C75.4641 332.721 74.2381 334.434 72.9886 336.179C71.8137 338.049 70.6192 339.951 69.4011 341.888C68.7881 342.862 68.1751 343.837 67.5543 344.823C67.0042 345.786 66.4502 346.752 65.8922 347.727C64.7723 349.751 63.5503 351.766 62.4619 353.88C58.0885 362.34 54.1042 371.554 51.0236 381.417C47.9469 391.256 45.9705 401.846 46.1001 412.553C46.3162 417.858 46.7602 423.288 48.5088 428.318C49.1139 430.942 50.3949 433.265 51.503 435.685L53.6562 439.025C54.3714 440.149 55.338 440.943 56.1632 441.949C60.0689 445.787 64.7173 448.609 70.0809 449.768C75.3933 450.79 80.9769 450.829 86.3208 449.591C97.0872 447.387 106.679 441.646 114.844 435.221C123.103 428.789 129.984 421.347 136.216 414.141C137.732 412.298 139.229 410.486 140.707 408.695C142.169 406.899 143.43 405.036 144.817 403.288C147.552 399.893 149.996 395.873 152.271 392.557C154.389 388.961 156.424 385.511 158.353 382.23C159.379 380.615 160.24 378.977 160.982 377.331C161.768 375.708 162.53 374.128 163.273 372.6C166.499 366.545 168.216 360.953 170.122 356.411C171.132 354.171 171.631 351.99 172.157 350.136C172.68 348.277 173.124 346.697 173.485 345.42C174.252 342.866 174.66 341.507 174.66 341.507L175.34 341.644Z" fill="#231F20"/>
</g>
<g id="Group_7">
<path id="Vector_19" d="M230.424 356.933C230.424 356.933 230.986 358.312 232.035 360.898C233.159 363.432 234.275 367.417 235.658 372.548C236.801 377.684 237.894 384.03 238.216 391.39C238.652 398.741 238.279 407.076 237.112 416.07C236.88 418.329 236.318 420.581 235.921 422.907C235.705 424.066 235.485 425.237 235.261 426.42L235.096 427.308L234.864 428.263L234.428 430.003C233.843 432.333 233.245 434.679 232.538 437.08C231.725 439.504 230.896 441.96 230.059 444.444C226.4 454.216 221.17 463.953 214.593 473.155C207.901 482.24 199.979 491.034 189.968 497.501C185.06 500.83 179.472 503.376 173.508 504.676C170.549 505.513 167.448 505.568 164.34 505.698L159.696 505.187C159.248 505.117 159.044 505.168 158.395 504.991L157.326 504.684L155.185 504.067C154.47 503.851 153.763 503.71 153.04 503.427L150.847 502.405C149.409 501.69 147.817 501.097 146.599 500.134C145.311 499.242 143.986 498.378 142.725 497.435L139.271 494.248C135.024 489.702 131.373 484.578 128.843 479.041C123.483 468.047 121.125 456.212 120.151 444.837C119.255 433.43 119.884 422.314 121.766 412.046C122.19 409.472 122.811 406.973 123.314 404.494C123.617 403.213 123.758 402.113 124.183 400.722C124.528 399.551 124.87 398.392 125.212 397.24C125.915 394.938 126.532 392.686 127.275 390.454C128.112 388.223 128.941 386.026 129.75 383.877C131.232 379.515 133.358 375.723 135.012 371.928C136.874 368.238 138.961 364.89 140.827 361.735C142.965 358.717 144.819 355.817 146.776 353.31C148.823 350.866 150.627 348.568 152.427 346.646C154.317 344.807 156.006 343.169 157.472 341.746C158.91 340.304 160.391 339.338 161.472 338.446C163.696 336.744 164.883 335.837 164.883 335.837L165.311 336.383C165.311 336.383 164.281 337.44 162.344 339.432C161.421 340.465 160.089 341.522 158.859 343.106C157.602 344.658 156.159 346.434 154.541 348.426C153.087 350.532 151.48 352.862 149.727 355.397C148.049 357.975 146.501 360.945 144.709 363.994C143.142 367.185 141.534 370.603 139.88 374.211C138.493 377.936 136.619 381.731 135.464 385.881C134.811 387.936 134.143 390.026 133.46 392.164C132.855 394.356 132.348 396.69 131.77 399.009C131.483 400.176 131.196 401.351 130.906 402.533C130.623 403.48 130.446 404.824 130.21 405.964C129.79 408.349 129.247 410.746 128.906 413.209C127.42 423.056 126.752 433.551 127.322 444.337C127.888 455.096 129.88 466.247 134.395 476.483C136.446 481.705 139.515 486.444 143.079 490.712L145.912 493.776C146.957 494.688 148.061 495.525 149.138 496.417C150.183 497.403 151.397 497.898 152.548 498.625L154.297 499.659C154.93 499.969 155.672 500.185 156.356 500.452L158.45 501.215L159.495 501.588C159.55 501.631 160.105 501.71 160.384 501.765L164.537 502.519C167.35 502.566 170.207 502.747 173.016 502.134L175.126 501.792C175.822 501.623 176.494 501.372 177.178 501.164C178.529 500.7 179.94 500.378 181.248 499.792C183.846 498.562 186.463 497.38 188.82 495.725C198.545 489.545 205.913 480.464 211.477 471.092C217.159 461.721 221.076 451.835 224.318 442.432C225.072 440.078 225.815 437.756 226.55 435.469C227.19 433.084 227.823 430.734 228.448 428.424L228.919 426.699C228.982 426.447 229.112 426.035 229.119 425.932L229.3 425.08C229.536 423.948 229.772 422.828 230.004 421.716C230.428 419.492 231.021 417.331 231.285 415.162C231.937 410.856 232.679 406.726 232.919 402.749C233.363 398.789 233.497 395.016 233.595 391.464C233.776 387.908 233.465 384.596 233.477 381.503C233.308 378.431 232.947 375.621 232.789 373.055C232.094 368.018 231.473 364.018 230.707 361.315C230.094 358.591 229.764 357.142 229.764 357.142L230.424 356.933Z" fill="#231F20"/>
</g>
<g id="Group_8">
<path id="Vector_20" d="M273.779 189.548C273.779 189.548 271.547 188.836 267.35 187.5C265.264 186.809 262.674 185.988 259.547 185.343C256.435 184.628 252.878 183.728 248.796 183.276C246.764 183.001 244.627 182.707 242.383 182.4C240.124 182.298 237.758 182.196 235.295 182.086C232.835 181.893 230.273 182.015 227.617 182.125C224.968 182.239 222.218 182.239 219.412 182.675C208.155 183.783 195.608 186.935 183.384 193.084C181.864 193.866 180.331 194.652 178.779 195.446C177.325 196.389 175.852 197.339 174.366 198.306C171.286 200.07 168.704 202.613 165.824 204.829C164.468 206.035 163.274 207.438 161.942 208.703C160.606 209.976 159.309 211.3 158.221 212.825C157.073 214.291 155.914 215.764 154.747 217.253C153.8 218.821 152.853 220.405 151.894 221.996C144.15 235.58 141.604 252.236 145.325 268.751C148.877 285.254 158.26 301.023 170.901 313.852L173.235 316.316L175.761 318.587L180.869 323.122C184.555 325.805 188.033 328.827 192.005 331.157C199.581 336.438 207.86 340.308 216.587 344.112C233.75 350.713 252.643 354.387 270.969 352.859C289.229 351.507 307.099 345.491 320.64 334.725C327.552 329.585 333.084 322.921 337.277 316.088C338.235 314.308 339.347 312.744 340.184 310.842C340.994 308.901 341.799 306.976 342.601 305.054C343.379 303.498 343.733 301.341 344.322 299.534C344.86 297.655 345.454 295.797 345.627 293.864C347.308 286.28 346.719 278.669 346.008 271.447C345.214 267.883 344.872 264.272 343.638 260.932C343.131 259.23 342.628 257.549 342.133 255.883C341.477 254.268 340.821 252.665 340.177 251.085C334.903 238.425 327.379 227.894 319.555 219.721C317.709 217.556 315.622 215.768 313.681 213.957C311.74 212.141 309.874 210.381 307.881 208.923C305.94 207.399 304.074 205.937 302.294 204.538C300.388 203.316 298.577 202.145 296.852 201.037C293.457 198.715 290.176 197.088 287.354 195.611C284.565 194.066 282.054 193.009 280.007 192.18C275.94 190.459 273.779 189.548 273.779 189.548ZM274.03 188.903C274.03 188.903 276.219 189.795 280.305 191.469C282.356 192.275 284.875 193.308 287.716 194.836C290.565 196.318 293.987 197.768 297.48 199.992C304.722 204.004 313.056 209.776 321.669 217.583C330.169 225.45 338.947 235.651 345.206 248.837C345.968 250.496 346.735 252.169 347.513 253.855C348.11 255.623 348.719 257.407 349.332 259.207C350.707 262.771 351.191 266.669 352.102 270.516C352.409 272.472 352.538 274.476 352.719 276.488C352.927 278.5 353.065 280.528 352.9 282.586C352.817 284.638 352.731 286.708 352.648 288.791C352.303 290.846 351.953 292.925 351.603 295.011C351.34 297.117 350.644 299.141 350 301.18C349.261 303.251 348.931 305.231 347.839 307.396C346.947 309.271 346.047 311.157 345.143 313.058C344.188 314.952 342.805 316.842 341.642 318.729C336.605 326.076 330.424 332.686 322.864 337.727C307.983 348.037 289.763 353.739 271.13 354.996L267.633 355.322L264.116 355.374L257.059 355.425C252.372 355.008 247.621 354.988 242.957 354.104C233.479 353.095 224.371 350.521 215.129 347.621L208.54 345.067C206.339 344.254 204.151 343.377 201.986 342.265L195.467 339.13C193.349 338.006 191.318 336.748 189.243 335.558C185.035 333.263 181.302 330.245 177.357 327.554L171.855 322.988L169.125 320.685L166.582 318.174C152.944 304.992 142.586 288.351 138.315 270.343C135.941 261.399 135.8 252.059 136.983 243.211C137.981 234.303 141.403 225.839 145.454 218.699C146.609 216.837 147.757 214.994 148.892 213.159C150.213 211.524 151.521 209.902 152.822 208.294C154.063 206.628 155.513 205.182 156.999 203.803C158.468 202.4 159.899 200.978 161.427 199.713C164.665 197.41 167.612 194.801 171.007 193.029C172.649 192.066 174.28 191.111 175.891 190.168C177.584 189.39 179.258 188.624 180.917 187.858C194.28 181.929 207.616 179.968 219.192 179.547C230.815 179.245 240.906 180.298 249.012 181.984C253.114 182.581 256.651 183.709 259.774 184.447C262.91 185.143 265.499 186.011 267.59 186.742C271.786 188.153 274.03 188.903 274.03 188.903Z" fill="#060303"/>
</g>
<g id="Group_9">
<path id="Vector_21" d="M189.044 332.819C189.044 332.819 192.545 237.996 241.85 182.474C241.85 182.474 169.778 242.752 189.044 332.819Z" fill="#060303" stroke="#060303" stroke-width="0.59" stroke-miterlimit="10" stroke-linejoin="round"/>
</g>
<g id="Group_10">
<path id="Vector_22" d="M142.656 182.911C142.656 182.911 141.551 183.858 139.485 185.63C138.439 186.506 136.923 187.284 135.253 188.368C134.388 188.86 133.374 189.213 132.337 189.685C131.296 190.16 130.18 190.636 128.926 190.919C124.046 192.494 117.704 193.194 110.584 192.392C103.46 191.646 95.5585 189.473 87.582 185.704C79.5975 181.968 71.5031 176.738 63.8723 170.105C56.2808 163.484 48.988 155.551 43.1647 146.046C40.2806 141.303 37.8522 136.12 36.2648 130.548C34.7009 124.996 34.0565 118.929 35.3178 112.964C36.5752 107.015 40.1666 101.518 44.8268 97.6951C49.7031 93.7343 55.5186 91.5889 61.4715 90.4847C73.4481 88.4376 86.0613 91.7343 95.5349 98.866C97.9554 100.595 100.065 102.654 102.128 104.752C104.026 106.788 105.995 109.082 107.622 111.467C109.244 113.888 110.706 116.469 111.559 119.354C112.431 122.222 112.525 125.428 111.665 128.32C109.908 134.179 105.559 138.195 101.696 141.668C97.7 145.161 93.3149 148.486 88.0142 149.739C82.6664 151.044 77.0356 148.879 73.5974 145.437L72.2575 144.179L71.0866 142.784C70.3714 141.861 69.5738 141.083 68.9412 140.065C68.3243 139.028 67.7152 137.998 67.1101 136.985C66.67 135.892 66.2967 134.788 65.9038 133.707C64.6032 129.216 65.7427 124.344 68.3714 121.083C69.0669 120.308 69.7585 119.55 70.4343 118.8C71.232 118.116 71.8921 117.523 72.6623 116.925C74.2497 115.746 75.9 114.796 77.6093 114.116C81.0278 112.729 84.9336 112.984 87.6095 114.744C89.083 115.385 90.026 116.654 91.1734 117.507C92.1007 118.638 93.0084 119.558 93.6803 120.697C96.533 125.035 97.2285 129.295 96.5723 131.986C95.8454 134.686 94.4386 135.546 94.5762 135.621C94.4386 135.554 95.81 134.627 96.423 131.955C96.977 129.303 96.1125 125.126 93.2127 121.051C92.5644 120.01 91.5349 119.024 90.6547 118.018C89.527 117.251 88.58 116.061 87.189 115.534C84.6349 113.99 81.1771 113.904 78.0729 115.283C76.513 115.97 75.0159 116.913 73.6092 118.025C72.9137 118.607 72.1711 119.314 71.5188 119.915C70.9294 120.623 70.3243 121.342 69.7153 122.069C67.4637 125.11 66.5639 129.244 67.7859 133.189C68.1632 134.144 68.5404 135.11 68.9215 136.089C69.4716 136.977 70.0257 137.869 70.5836 138.776C71.1495 139.676 72.0257 140.513 72.7408 141.397L73.8293 142.647L75.0749 143.767C78.348 146.839 82.9453 148.427 87.4405 147.275C91.9514 146.128 96.0222 143.008 99.7825 139.562C103.547 136.03 107.417 132.301 108.765 127.507C110.231 122.749 108.121 117.601 105.052 113.243C103.496 111 101.771 109.004 99.7865 106.905C97.865 104.984 95.8689 103.055 93.6096 101.467C84.7646 94.9013 73.063 91.9582 62.053 93.8993C56.6188 94.8463 51.1688 96.8856 47.0037 100.233C42.7207 103.734 39.6597 108.391 38.4692 113.668C37.3218 118.945 37.8365 124.505 39.2668 129.719C40.7207 134.949 42.9918 139.92 45.7424 144.505C51.3024 153.621 58.218 161.57 65.5423 168.223C72.8705 174.855 80.6899 180.137 88.4268 183.952C96.1676 187.748 103.794 190.16 110.734 191.158C117.677 192.192 123.917 191.74 128.769 190.361C130.019 190.129 131.131 189.697 132.172 189.268C133.209 188.84 134.231 188.526 135.099 188.07C136.773 187.064 138.31 186.349 139.386 185.516C141.516 183.814 142.656 182.911 142.656 182.911Z" fill="#060303"/>
</g>
<g id="Group_11">
<path id="Vector_23" d="M120.323 227.202C120.323 227.202 119.624 225.713 118.315 222.919C116.602 220.404 114.079 216.534 109.297 213.292C104.672 209.948 98.2754 206.962 90.5189 205.213C82.7742 203.461 73.721 202.891 64.0155 203.929C54.3611 205.017 43.8777 207.681 34.0582 212.825C24.1327 217.929 15.2878 226.11 9.68062 236.79C4.14419 247.316 2.08914 260.652 5.95168 272.319C7.16192 275.454 8.52147 277.949 10.3565 280.606C12.1325 283.215 14.1954 285.651 16.4077 287.95C20.8714 292.5 26.0345 296.445 31.7281 299.239C37.3785 302.028 43.6773 303.71 49.807 302.956C51.2963 302.594 52.8523 302.5 54.2826 301.95L56.4319 301.133C56.7423 301.026 57.2531 300.81 57.4024 300.791L58.4634 300.178L60.5852 298.967L62.3534 297.596C63.5715 296.779 64.6206 295.549 65.7484 294.512C70.0274 289.997 73.1709 284.452 75.5638 278.755C77.9175 273.034 79.5639 267.026 80.0433 261.069C80.3655 258.098 80.2201 255.132 79.6818 252.397C79.4932 251.756 79.3792 250.978 79.1474 250.46C78.8566 249.776 78.5855 249.002 78.2476 248.538C77.7053 247.426 76.7348 246.432 75.7917 245.587C71.5756 242.365 65.4458 242.778 60.2826 244.232C55.092 245.815 49.642 247.709 46.7382 251.674C43.6262 255.615 42.4081 260.696 42.1998 265.442C42.0977 267.839 42.2431 270.197 42.6478 272.448C42.856 273.513 43.1586 274.782 43.469 275.58C43.9995 276.594 44.4553 277.733 45.2058 278.252C48.0035 281.168 52.7226 281.474 56.4437 280.849C60.263 280.173 63.8466 278.704 66.2513 276.405C68.6443 274.103 69.882 271.03 70.271 268.264C70.6561 265.482 70.33 262.821 69.2219 260.924C68.0117 258.994 65.6462 259.336 64.2945 259.788C62.821 260.208 61.7286 260.684 61.0056 261.01C60.2748 261.332 59.8976 261.497 59.8976 261.497C59.8976 261.497 60.2669 261.32 60.986 260.975C61.7051 260.629 62.7738 260.114 64.2513 259.643C64.9861 259.391 65.8466 259.203 66.8132 259.214C67.7916 259.25 68.8486 259.761 69.5166 260.766C70.7268 262.704 71.1551 265.434 70.8486 268.334C70.5264 271.23 69.3909 274.448 66.8564 277.061C64.3181 279.615 60.6756 281.234 56.6637 282.083C52.7226 282.786 47.7323 282.944 43.9445 279.34C42.8678 278.441 42.471 277.407 41.913 276.397C41.3511 275.065 41.1468 274.036 40.8599 272.798C40.3845 270.401 40.1841 267.914 40.2509 265.379C40.3884 260.35 41.5358 254.865 44.9739 250.307C46.6439 248.055 49.0919 246.114 51.6263 244.915C54.1411 243.686 56.8052 242.633 59.5989 241.8C62.3927 240.982 65.3554 240.401 68.4557 240.467C71.5284 240.53 74.8251 241.324 77.5364 243.34C78.8213 244.436 80.0001 245.595 80.837 247.171C81.34 247.961 81.5522 248.621 81.8587 249.324C82.2319 250.189 82.3223 250.927 82.562 251.741C83.2143 254.927 83.3557 258.15 83.0414 261.313C82.562 267.67 80.8802 273.922 78.4519 279.942C75.9725 285.93 72.7229 291.789 68.102 296.732C66.8564 297.899 65.7955 299.172 64.322 300.205L62.2198 301.808L60.1058 303.038C56.9938 304.755 53.6814 305.734 50.2196 306.288C43.2529 307.176 36.2822 305.325 30.1957 302.347C24.0895 299.301 18.6788 295.097 13.999 290.276C11.6807 287.84 9.51953 285.25 7.63737 282.46C5.75522 279.753 4.04596 276.468 2.96146 273.545C-1.3058 260.393 1.15004 246.578 7.02047 235.399C12.9027 224.137 22.6278 215.626 32.8637 210.605C43.2175 205.422 53.9014 202.946 63.823 201.991C73.7603 201.064 82.9942 201.956 90.8175 204.007C98.6526 206.035 105.061 209.288 109.643 212.829C114.378 216.267 116.818 220.271 118.453 222.856C119.671 225.689 120.323 227.202 120.323 227.202Z" fill="#060303"/>
</g>
<g id="Group_12">
<path id="Vector_24" d="M113.211 192.478C102.74 208.703 106.651 230.655 121.251 246.81C121.251 246.81 124.379 231.992 136.432 211.067C148.485 190.141 167.398 179.636 167.398 179.636C160.637 177.442 153.707 176.282 147.034 176.27C133.068 176.273 120.331 181.374 113.211 192.478Z" fill="url(#paint1_linear_179_1530)"/>
</g>
<g id="Group_13">
<path id="Vector_25" d="M167.398 179.65C146.478 172.761 123.745 176.088 113.197 192.473C102.756 208.698 106.66 230.659 121.251 246.815C121.251 246.815 124.373 231.988 136.441 211.065C148.498 190.13 167.398 179.65 167.398 179.65Z" stroke="#060303" stroke-width="2" stroke-miterlimit="10"/>
</g>
</g>
</g>
<defs>
<linearGradient id="paint0_linear_179_1530" x1="161.28" y1="202.861" x2="328.492" y2="332.244" gradientUnits="userSpaceOnUse">
<stop stop-color="#F8BE14"/>
<stop offset="0.35" stop-color="#F7D425"/>
<stop offset="1" stop-color="#F7971D"/>
</linearGradient>
<linearGradient id="paint1_linear_179_1530" x1="113.649" y1="191.785" x2="144.597" y2="213.427" gradientUnits="userSpaceOnUse">
<stop stop-color="#F8BE14"/>
<stop offset="0.35" stop-color="#F7D425"/>
<stop offset="1" stop-color="#F7971D"/>
</linearGradient>
</defs>
</svg>
