<svg width="131" height="105" viewBox="0 0 131 105" fill="none" xmlns="http://www.w3.org/2000/svg">
<path opacity="0.4" d="M13.1 49.1531C10.5091 49.1531 7.97632 49.9228 5.82204 51.365C3.66775 52.8072 1.98869 54.8571 0.997184 57.2554C0.00567598 59.6536 -0.253748 62.2926 0.251719 64.8386C0.757185 67.3846 2.00484 69.7233 3.83691 71.5589C5.66898 73.3944 8.00317 74.6445 10.5443 75.1509C13.0855 75.6573 15.7194 75.3974 18.1132 74.404C20.5069 73.4106 22.5528 71.7283 23.9923 69.5699C25.4317 67.4115 26.2 64.874 26.2 62.2781C26.1968 58.7981 24.8155 55.4616 22.3595 53.0009C19.9035 50.5402 16.5733 49.1563 13.1 49.1531ZM31.1125 65.5593H40.9375V58.9968H31.1125V65.5593ZM91.3725 43.657L95.3025 48.907L105.127 41.5242L101.198 36.2742L91.3725 43.657ZM117.9 13.0593C115.309 13.0593 112.776 13.8291 110.622 15.2713C108.468 16.7135 106.789 18.7633 105.797 21.1616C104.806 23.5599 104.546 26.1989 105.052 28.7449C105.557 31.2909 106.805 33.6295 108.637 35.4651C110.469 37.3007 112.803 38.5507 115.344 39.0571C117.885 39.5636 120.519 39.3036 122.913 38.3102C125.307 37.3168 127.353 35.6346 128.792 33.4762C130.232 31.3178 131 28.7802 131 26.1843C130.997 22.7044 129.616 19.3679 127.16 16.9071C124.703 14.4464 121.373 13.0626 117.9 13.0593Z" fill="black"/>
<path d="M117.9 78.6843C115.067 78.6982 112.316 79.6339 110.06 81.3504L90.4104 69.5379C91.2373 67.1988 91.673 64.7389 91.6999 62.2576C91.7015 59.2408 91.1097 56.2533 89.9581 53.4659C88.8066 50.6785 87.118 48.1458 84.9889 46.0126C82.8598 43.8794 80.332 42.1876 77.5498 41.0339C74.7677 39.8802 71.7859 39.2872 68.7749 39.2888C67.093 39.2972 65.4175 39.4967 63.7805 39.8836L55.4293 21.9597C57.4622 19.7473 58.673 16.9012 58.8582 13.8997C59.0433 10.8982 58.1915 7.92437 56.4459 5.47804C54.7003 3.0317 52.1673 1.26202 49.2728 0.466459C46.3782 -0.329103 43.2985 -0.102042 40.5514 1.10947C37.8043 2.32099 35.5572 4.4431 34.1878 7.1191C32.8184 9.7951 32.4102 12.8618 33.0319 15.8039C33.6536 18.7459 35.2672 21.3838 37.6015 23.2742C39.9358 25.1645 42.8484 26.1922 45.8499 26.1843C46.0751 26.1843 46.2798 26.1228 46.5049 26.1228L54.8971 44.1287C49.4319 48.3123 45.8499 54.8543 45.8499 62.2781C45.838 66.8769 47.2078 71.373 49.7811 75.1811C52.3545 78.9893 56.0122 81.9334 60.2784 83.6303C64.5446 85.3272 69.2218 85.6984 73.7015 84.6956C78.1812 83.6928 82.2559 81.3624 85.3955 78.0076L105.005 89.7996C104.6 92.4453 105.014 95.1517 106.192 97.5545C107.369 99.9572 109.252 101.941 111.589 103.239C113.926 104.536 116.603 105.086 119.26 104.813C121.918 104.54 124.428 103.458 126.453 101.712C128.479 99.9664 129.921 97.6411 130.588 95.049C131.254 92.457 131.112 89.7227 130.18 87.2141C129.248 84.7056 127.571 82.5433 125.376 81.0183C123.181 79.4933 120.571 78.6787 117.9 78.6843ZM68.7749 72.1218C66.8317 72.1218 64.9322 71.5445 63.3164 70.4629C61.7007 69.3812 60.4414 67.8438 59.6978 66.0451C58.9542 64.2464 58.7596 62.2672 59.1387 60.3577C59.5178 58.4482 60.4535 56.6942 61.8276 55.3175C63.2016 53.9408 64.9523 53.0033 66.8582 52.6235C68.764 52.2437 70.7395 52.4386 72.5348 53.1836C74.3301 53.9287 75.8645 55.1904 76.9441 56.8092C78.0237 58.428 78.5999 60.3312 78.5999 62.2781C78.5999 64.8888 77.5648 67.3926 75.7222 69.2387C73.8797 71.0847 71.3807 72.1218 68.7749 72.1218Z" fill="black"/>
</svg>
