
<svg
  xmlns="http://www.w3.org/2000/svg"
  version="1.1"
  xmlns:xlink="http://www.w3.org/1999/xlink"
  xmlns:svgjs="http://svgjs.dev/svgjs"
  viewBox="150 150 500 500"
>
  <defs>
    <linearGradient x1="50%" y1="0%" x2="50%" y2="100%" id="nnneon-grad">
      <stop stop-color="#33BDFF" stop-opacity="1" offset="0%"></stop>
      <stop stop-color="#FF3333" stop-opacity="1" offset="100%"></stop>
    </linearGradient>
    <filter
      id="nnneon-filter"
      x="-100%"
      y="-100%"
      width="600%"
      height="600%"
      filterUnits="objectBoundingBox"
      primitiveUnits="userSpaceOnUse"
      color-interpolation-filters="sRGB"
    >
      <feGaussianBlur
        stdDeviation="43 30"
        x="0%"
        y="0%"
        width="200%"
        height="200%"
        in="SourceGraphic"
        edgeMode="none"
        result="blur"
      ></feGaussianBlur>
    </filter>
    <filter
      id="nnneon-filter2"
      x="-100%"
      y="-100%"
      width="600%"
      height="600%"
      filterUnits="objectBoundingBox"
      primitiveUnits="userSpaceOnUse"
      color-interpolation-filters="sRGB"
    >
      <feGaussianBlur
        stdDeviation="29 20"
        x="0%"
        y="0%"
        width="600%"
        height="600%"
        in="SourceGraphic"
        edgeMode="none"
        result="blur"
      ></feGaussianBlur>
    </filter>
  </defs>
  <g stroke-width="24.5" stroke="url(#nnneon-grad)" fill="none">
    <path
      d="M388.8764003238194 239.5676499250646C395.7596838034399 235.59430012073284 404.2403161965601 235.59430012073284 411.1235996761806 239.56876228503216L533.3764095572761 310.15133931030107C540.2596930368967 314.1246891146328 544.5000092334567 321.4696019808149 544.5000092334567 329.417413949446V470.58256799998367C544.5000092334567 478.5303799686148 540.2596930368967 485.8752928347969 533.3764095572761 489.84975499909626L411.1235996761806 560.432332024365C404.2403161965601 564.4056818286967 395.7596838034399 564.4056818286967 388.8764003238194 560.4312196643975L266.62359044272387 489.8486426391286C259.7403069631033 485.8752928347969 255.49999076654325 478.5303799686148 255.49999076654325 470.58256799998367V329.417413949446C255.49999076654325 321.4696019808149 259.7403069631033 314.1246891146328 266.62359044272387 310.1502269503335L388.8764003238194 239.5676499250646Z "
      filter="url(#nnneon-filter)"
    ></path>
    <path
      d="M399.8764003238194 239.5676499250646C406.7596838034399 235.59430012073284 415.2403161965601 235.59430012073284 422.1235996761806 239.56876228503216L544.3764095572761 310.15133931030107C551.2596930368967 314.1246891146328 555.5000092334567 321.4696019808149 555.5000092334567 329.417413949446V470.58256799998367C555.5000092334567 478.5303799686148 551.2596930368967 485.8752928347969 544.3764095572761 489.84975499909626L422.1235996761806 560.432332024365C415.2403161965601 564.4056818286967 406.7596838034399 564.4056818286967 399.8764003238194 560.4312196643975L277.62359044272387 489.8486426391286C270.7403069631033 485.8752928347969 266.49999076654325 478.5303799686148 266.49999076654325 470.58256799998367V329.417413949446C266.49999076654325 321.4696019808149 270.7403069631033 314.1246891146328 277.62359044272387 310.1502269503335L399.8764003238194 239.5676499250646Z "
      filter="url(#nnneon-filter2)"
      opacity="0.49"
    ></path>
    <path
      d="M377.8764003238194 239.5676499250646C384.7596838034399 235.59430012073284 393.2403161965601 235.59430012073284 400.1235996761806 239.56876228503216L522.3764095572761 310.15133931030107C529.2596930368967 314.1246891146328 533.5000092334567 321.4696019808149 533.5000092334567 329.417413949446V470.58256799998367C533.5000092334567 478.5303799686148 529.2596930368967 485.8752928347969 522.3764095572761 489.84975499909626L400.1235996761806 560.432332024365C393.2403161965601 564.4056818286967 384.7596838034399 564.4056818286967 377.8764003238194 560.4312196643975L255.62359044272387 489.8486426391286C248.7403069631033 485.8752928347969 244.49999076654325 478.5303799686148 244.49999076654325 470.58256799998367V329.417413949446C244.49999076654325 321.4696019808149 248.7403069631033 314.1246891146328 255.62359044272387 310.1502269503335L377.8764003238194 239.5676499250646Z "
      filter="url(#nnneon-filter2)"
      opacity="0.49"
    ></path>
    <path
      d="M388.8764003238194 239.5676499250646C395.7596838034399 235.59430012073284 404.2403161965601 235.59430012073284 411.1235996761806 239.56876228503216L533.3764095572761 310.15133931030107C540.2596930368967 314.1246891146328 544.5000092334567 321.4696019808149 544.5000092334567 329.417413949446V470.58256799998367C544.5000092334567 478.5303799686148 540.2596930368967 485.8752928347969 533.3764095572761 489.84975499909626L411.1235996761806 560.432332024365C404.2403161965601 564.4056818286967 395.7596838034399 564.4056818286967 388.8764003238194 560.4312196643975L266.62359044272387 489.8486426391286C259.7403069631033 485.8752928347969 255.49999076654325 478.5303799686148 255.49999076654325 470.58256799998367V329.417413949446C255.49999076654325 321.4696019808149 259.7403069631033 314.1246891146328 266.62359044272387 310.1502269503335L388.8764003238194 239.5676499250646Z "
    ></path>
  </g>
</svg>