<svg
  viewBox="0 0 293 281"
  fill="none"
  xmlns="http://www.w3.org/2000/svg"
>
  <path
    d="M70.4307 280.427C61.3195 280.427 53.5515 277.219 47.1267 270.804C40.702 264.388 37.4896 256.625 37.4896 247.514C37.4896 238.403 40.6913 230.654 47.0946 224.266C53.4978 217.879 61.2733 214.686 70.421 214.686C73.1276 214.686 75.6246 214.965 77.9122 215.524C80.1995 216.083 82.4978 216.922 84.8069 218.04L115.953 179.395C112.168 174.938 109.377 169.947 107.58 164.421C105.783 158.894 105.364 153.128 106.322 147.123L61.3277 132.077C58.4527 137.108 54.58 141.057 49.7096 143.924C44.8393 146.791 39.2488 148.225 32.9382 148.225C23.892 148.225 16.1599 145.028 9.74175 138.633C3.32342 132.239 0.114258 124.475 0.114258 115.34C0.114258 106.205 3.32197 98.4457 9.73739 92.0608C16.1526 85.6759 23.9158 82.4834 33.027 82.4834C42.1382 82.4834 49.8874 85.6792 56.2746 92.0708C62.6617 98.4623 65.8553 106.223 65.8553 115.354C65.8553 115.753 65.8354 116.201 65.7955 116.696C65.7557 117.191 65.7357 117.558 65.7357 117.798L110.921 133.395C114.1 127.629 118.057 123.081 122.793 119.751C127.529 116.421 132.955 114.109 139.072 112.815V64.9695C131.054 63.085 124.809 59.0202 120.337 52.775C115.865 46.5299 113.629 39.9169 113.629 32.936C113.629 23.9048 116.826 16.1768 123.22 9.75202C129.615 3.32725 137.379 0.114868 146.514 0.114868C155.648 0.114868 163.408 3.32394 169.793 9.74206C176.178 16.1602 179.37 23.908 179.37 32.9856C179.37 39.9334 177.102 46.5299 172.566 52.775C168.03 59.0202 161.817 63.085 153.927 64.9695V112.815C160.044 114.109 165.502 116.421 170.302 119.751C175.102 123.081 179.131 127.629 182.389 133.395L227.263 117.798C227.184 117.578 227.144 117.211 227.144 116.696V115.354C227.144 106.223 230.333 98.4623 236.71 92.0708C243.088 85.6792 250.833 82.4834 259.944 82.4834C269.055 82.4834 276.823 85.6806 283.248 92.0748C289.672 98.4691 292.885 106.233 292.885 115.368C292.885 124.503 289.676 132.263 283.258 138.647C276.839 145.032 269.107 148.225 260.061 148.225C253.776 148.225 248.16 146.771 243.213 143.864C238.266 140.957 234.419 137.028 231.672 132.077L186.678 147.123C187.716 153.128 187.348 158.914 185.575 164.48C183.802 170.047 180.959 174.978 177.046 179.275L208.192 218.04C210.397 216.922 212.668 216.083 215.008 215.524C217.348 214.965 219.826 214.686 222.442 214.686C231.785 214.686 239.631 217.875 245.983 224.252C252.334 230.63 255.51 238.374 255.51 247.486C255.51 256.597 252.302 264.365 245.887 270.79C239.471 277.215 231.708 280.427 222.597 280.427C213.486 280.427 205.737 277.228 199.349 270.83C192.962 264.432 189.769 256.662 189.769 247.522C189.769 243.537 190.321 239.944 191.427 236.744C192.532 233.544 194.279 230.392 196.669 227.288L165.522 188.403C159.73 191.693 153.347 193.338 146.373 193.338C139.399 193.338 133.036 191.693 127.285 188.403L96.3306 227.599C98.6466 230.634 100.376 233.716 101.518 236.847C102.66 239.978 103.231 243.536 103.231 247.522C103.231 256.662 100.042 264.431 93.6642 270.829C87.2864 277.228 79.5418 280.427 70.4307 280.427ZM33.017 134.089C38.2506 134.089 42.6763 132.27 46.2942 128.631C49.9119 124.992 51.7207 120.555 51.7207 115.322C51.7207 110.088 49.9012 105.663 46.2621 102.045C42.623 98.4272 38.1867 96.6184 32.9532 96.6184C27.7196 96.6184 23.2939 98.4378 19.676 102.077C16.0583 105.716 14.2495 110.152 14.2495 115.386C14.2495 120.619 16.069 125.045 19.7081 128.663C23.3472 132.28 27.7835 134.089 33.017 134.089ZM70.392 266.292C75.6256 266.292 80.0513 264.472 83.6692 260.833C87.2869 257.194 89.0957 252.758 89.0957 247.524C89.0957 242.29 87.2762 237.865 83.6371 234.247C79.998 230.629 75.5617 228.82 70.3282 228.82C65.0946 228.82 60.6689 230.64 57.051 234.279C53.4333 237.918 51.6245 242.354 51.6245 247.588C51.6245 252.821 53.444 257.247 57.0831 260.865C60.7222 264.483 65.1585 266.292 70.392 266.292ZM146.532 51.7207C151.765 51.7207 156.191 49.9012 159.809 46.2621C163.426 42.623 165.235 38.1867 165.235 32.9532C165.235 27.7196 163.416 23.2939 159.777 19.676C156.138 16.0583 151.701 14.2495 146.468 14.2495C141.234 14.2495 136.808 16.069 133.191 19.7081C129.573 23.3472 127.764 27.7835 127.764 33.017C127.764 38.2506 129.584 42.6763 133.223 46.2942C136.862 49.9119 141.298 51.7207 146.532 51.7207ZM146.596 179.203C153.943 179.203 160.176 176.612 165.295 171.428C170.414 166.246 172.974 159.981 172.974 152.633C172.974 145.286 170.402 139.053 165.26 133.934C160.118 128.815 153.864 126.255 146.5 126.255C139.216 126.255 132.983 128.826 127.8 133.969C122.617 139.111 120.026 145.364 120.026 152.729C120.026 160.012 122.617 166.246 127.8 171.428C132.983 176.612 139.248 179.203 146.596 179.203ZM222.671 266.292C227.905 266.292 232.33 264.472 235.948 260.833C239.566 257.194 241.375 252.758 241.375 247.524C241.375 242.291 239.555 237.865 235.916 234.247C232.277 230.629 227.841 228.821 222.607 228.821C217.374 228.821 212.948 230.64 209.33 234.279C205.712 237.918 203.904 242.355 203.904 247.588C203.904 252.822 205.723 257.247 209.362 260.865C213.001 264.483 217.438 266.292 222.671 266.292ZM260.046 134.09C265.28 134.09 269.705 132.27 273.323 128.631C276.941 124.992 278.75 120.556 278.75 115.322C278.75 110.089 276.93 105.663 273.291 102.045C269.652 98.4275 265.216 96.6187 259.982 96.6187C254.749 96.6187 250.323 98.4381 246.705 102.077C243.087 105.716 241.279 110.152 241.279 115.386C241.279 120.62 243.098 125.045 246.737 128.663C250.376 132.281 254.813 134.09 260.046 134.09Z"
    fill="url(#paint0_linear_245_2796)" filter="url(#sofGlow)"
  />
  <defs>
  
    <linearGradient
      id="paint0_linear_245_2796"
      x1="146.5"
      y1="0.114868"
      x2="146.5"
      y2="280.427"
      gradientUnits="userSpaceOnUse"
    >
      <stop stop-color="#FAFF12" />
      <stop offset="1" stop-color="#F41AF9" />
    </linearGradient>
  </defs>

  <filter id="sofGlow" height="300%" width="300%" x="-75%" y="-75%">
		<!-- Thicken out the original shape -->
		<feMorphology operator="dilate" radius="4" in="SourceAlpha" result="thicken" />

		<!-- Use a gaussian blur to create the soft blurriness of the glow -->
		<feGaussianBlur in="thicken" stdDeviation="10" result="blurred" />

		<!-- Change the colour -->
		<feFlood flood-color="rgb(255,186,255)" result="glowColor" />

		<!-- Color in the glows -->
		<feComposite in="glowColor" in2="blurred" operator="in" result="softGlow_colored" />

		<!--	Layer the effects together -->
		<feMerge>
			<feMergeNode in="softGlow_colored"/>
			<feMergeNode in="SourceGraphic"/>
		</feMerge>

	</filter>

</svg>

