<svg
  xmlns="http://www.w3.org/2000/svg"
  version="1.1"
  xmlns:xlink="http://www.w3.org/1999/xlink"
  xmlns:svgjs="http://svgjs.dev/svgjs"
  viewBox="0 0 101 98"
  fill="none"
>
  <g id="8865372-ai 1">
    <path
      id="1"
      fill-rule="evenodd"
      clip-rule="evenodd"
      d="M59.0426 89.6006C60.4663 89.6283 61.9496 89.6572 63.4102 89.4808C64.9962 89.3138 66.3317 88.9518 67.556 88.395C70.5888 87.0308 72.7034 84.5251 74.5397 82.3257C75.4579 81.2121 76.3204 80.1819 77.2108 79.3746C78.0968 78.5418 79.19 77.7867 80.3155 77.0094L80.4383 76.9246L80.5088 76.8756C82.8562 75.2454 85.4904 73.416 87.0882 70.5768C88.702 67.7649 88.9524 64.5075 89.1471 61.6677C89.1578 61.5291 89.1682 61.3912 89.1786 61.254C89.2762 59.9597 89.3686 58.7358 89.6202 57.603C89.8427 56.4336 90.2879 55.1808 90.7609 53.8723C91.7348 51.1439 92.8199 48.0535 92.4304 44.6848C92.0749 41.3743 90.376 38.6553 88.8651 36.2372L88.7854 36.1098C88.0342 34.9126 87.3386 33.799 86.8378 32.7132C86.337 31.5439 85.9196 30.2354 85.5022 28.8433C84.6954 26.1149 83.7494 22.9967 81.5513 20.6024C79.3767 18.2089 76.4585 17.0111 73.8605 15.9447C73.7992 15.9196 73.7381 15.8945 73.6772 15.8694C72.3416 15.3405 71.0618 14.8115 69.9766 14.199C68.9585 13.6092 67.9403 12.8386 66.8476 12.0116L66.7213 11.916C64.4397 10.1621 61.8521 8.18535 58.5967 7.48933C57.289 7.23876 55.87 7.18308 54.3119 7.35012C52.8075 7.53181 51.3272 7.88286 49.8937 8.22283C49.7895 8.24754 49.6856 8.27219 49.5819 8.29671C48.135 8.65865 46.7717 8.99274 45.464 9.13194C44.1999 9.26943 42.8272 9.24397 41.3461 9.2165L41.2904 9.21546C39.7323 9.18762 38.0907 9.15978 36.4769 9.32683C34.891 9.52172 33.5554 9.85581 32.3312 10.4126C29.2984 11.7768 27.1838 14.2825 25.3474 16.5098C25.3083 16.5561 25.2692 16.6023 25.2302 16.6484C24.3556 17.6831 23.5287 18.6613 22.6764 19.4609C21.7945 20.2631 20.7073 21.0139 19.5874 21.7874C19.5412 21.8192 19.495 21.8511 19.4488 21.8831L19.3784 21.932C17.0309 23.5622 14.3967 25.3916 12.7989 28.2308C11.1852 31.0706 10.9348 34.3001 10.74 37.1399C10.7303 37.2683 10.7208 37.3959 10.7114 37.5226C10.6127 38.8519 10.521 40.0863 10.267 41.2047C10.0464 42.3635 9.60716 43.6044 9.1389 44.9274L9.12621 44.9632C9.10862 45.0134 9.09096 45.0638 9.07326 45.1143C8.13933 47.7788 7.07451 50.8168 7.45679 54.1228C7.81566 57.4652 9.54396 60.2319 11.0656 62.6679L11.1017 62.7257C11.8529 63.895 12.5485 65.0365 13.0494 66.0944C13.5502 67.2638 13.9675 68.5723 14.3849 69.9643C15.1918 72.7206 16.1378 75.8109 18.3359 78.2331C20.5618 80.6552 23.5667 81.8802 26.21 82.9382C26.4044 83.0192 26.5976 83.0991 26.7892 83.1783C27.914 83.6433 28.9833 84.0853 29.9105 84.6086C30.9678 85.2211 32.0251 86.0285 33.1659 86.9194C35.4474 88.6734 38.035 90.6501 41.2904 91.3183C42.5981 91.5967 44.0171 91.6246 45.5753 91.4575C47.2169 91.2905 48.775 90.9007 50.3053 90.5109C51.7521 90.149 53.1155 89.8149 54.4232 89.6757C55.695 89.5374 57.1042 89.564 58.5689 89.5916L58.5967 89.5922C58.7446 89.5948 58.8933 89.5977 59.0426 89.6006ZM86.2122 56.7921C87.3482 54.4313 88.5071 52.0231 88.5071 49.4177C88.5071 46.7935 87.3475 44.3898 86.211 42.0342C85.5872 40.7411 84.9703 39.4625 84.5562 38.17C84.119 36.8177 83.8521 35.3732 83.5857 33.9315C83.1062 31.3361 82.6284 28.7498 81.1617 26.7273C79.6714 24.6612 77.3352 23.4066 75.0056 22.1556C73.7253 21.4681 72.4469 20.7816 71.3121 19.962C70.1883 19.146 69.1426 18.1414 68.0914 17.1314C66.2015 15.3158 64.2934 13.4827 61.8799 12.6955C59.5293 11.9293 56.9508 12.2693 54.3412 12.6134C52.8735 12.8069 51.3959 13.0018 49.9435 13.0018C48.4911 13.0018 47.0136 12.8069 45.5458 12.6134C42.9362 12.2693 40.3577 11.9293 38.0071 12.6955C35.5936 13.4827 33.6855 15.3158 31.7957 17.1314C30.7444 18.1414 29.6987 19.146 28.5749 19.962C27.4401 20.7816 26.1617 21.4681 24.8814 22.1556C22.5518 23.4066 20.2156 24.6612 18.7253 26.7273C17.2586 28.7498 16.7808 31.3361 16.3013 33.9315C16.0349 35.3732 15.768 36.8177 15.3308 38.17C14.9167 39.4625 14.2998 40.7411 13.676 42.0342C12.5395 44.3898 11.3799 46.7935 11.3799 49.4177C11.3799 52.0231 12.5388 54.4313 13.6749 56.7921C14.2991 58.0892 14.9164 59.3721 15.3308 60.6654C15.768 62.0176 16.0349 63.4622 16.3013 64.9039C16.7808 67.4992 17.2586 70.0855 18.7253 72.108C20.2108 74.1495 22.5365 75.3962 24.8586 76.6409C26.1465 77.3313 27.4333 78.0211 28.5749 78.8455C29.6899 79.665 30.7279 80.6631 31.7709 81.6659C33.6688 83.4908 35.583 85.3313 38.0071 86.1398C40.3486 86.8853 42.9163 86.5445 45.5155 86.1994C46.9932 86.0033 48.4812 85.8058 49.9435 85.8058C51.4058 85.8058 52.8938 86.0033 54.3715 86.1994C56.9707 86.5445 59.5384 86.8853 61.8799 86.1398C64.304 85.3313 66.2182 83.4908 68.1161 81.6659C69.1591 80.6631 70.1971 79.665 71.3121 78.8455C72.4537 78.0211 73.7405 77.3313 75.0285 76.6409C77.3505 75.3962 79.6763 74.1495 81.1617 72.108C82.6284 70.0855 83.1062 67.4992 83.5857 64.9039C83.8521 63.4622 84.119 62.0176 84.5562 60.6654C84.9706 59.3721 85.5879 58.0892 86.2122 56.7921Z"
      fill="url(#paint0_linear_245_2683)" filter="url(#sofGlow)"
    />
    <path
      id="2"
      fill-rule="evenodd"
      clip-rule="evenodd"
      d="M25.8788 46.7373C25.2224 48.2832 24.5521 49.8619 24.624 51.5335C24.7137 53.2036 25.5327 54.7 26.3344 56.1645C26.7756 56.9705 27.2114 57.7668 27.5176 58.5772C27.8497 59.4432 28.069 60.3711 28.2873 61.2951C28.6726 62.9257 29.055 64.544 30.0496 65.788C31.072 67.0444 32.6032 67.7685 34.1289 68.49C34.9698 68.8877 35.8089 69.2845 36.5603 69.7693C37.2955 70.2499 37.9858 70.8445 38.6798 71.4424C39.9558 72.5416 41.2446 73.6518 42.8485 74.0846C44.3595 74.4937 45.9955 74.1868 47.6549 73.8756C48.5926 73.6997 49.5378 73.5224 50.4722 73.4721C51.4109 73.4216 52.3716 73.4993 53.3237 73.5764C54.9961 73.7117 56.642 73.8449 58.0959 73.2772C59.634 72.6867 60.8042 71.4519 61.9612 70.2311C62.6042 69.5526 63.2431 68.8785 63.9388 68.3215C64.6341 67.7551 65.4322 67.2666 66.2331 66.7765C67.6758 65.8935 69.1277 65.0049 70.0044 63.6443C70.8784 62.3056 71.1007 60.6465 71.3235 58.9825C71.4483 58.051 71.5733 57.1179 71.8129 56.2386C72.0431 55.4228 72.3924 54.607 72.7455 53.782C73.4168 52.214 74.1022 50.613 74.011 48.9164C73.9382 47.2226 73.1034 45.7076 72.2854 44.2231C71.853 43.4384 71.4253 42.6622 71.1173 41.8727C70.8048 41.0322 70.5917 40.1333 70.3793 39.2376C69.9867 37.5817 69.5965 35.9364 68.5854 34.6897C67.576 33.4316 66.0706 32.7148 64.5714 32.001C63.7152 31.5934 62.861 31.1867 62.1025 30.6806C61.3508 30.1992 60.6424 29.5914 59.9292 28.9795C58.6626 27.8926 57.3808 26.7928 55.8143 26.3653C54.2871 25.9744 52.6578 26.2753 51.0061 26.5803C50.07 26.7532 49.1267 26.9274 48.1906 26.9778C47.2504 27.0284 46.2882 26.954 45.3333 26.8802C43.6601 26.7508 42.0094 26.6232 40.5391 27.1727C38.9777 27.7722 37.7955 29.0355 36.629 30.282C36.0078 30.9458 35.3911 31.6048 34.724 32.1562C34.0199 32.7217 33.2205 33.206 32.4201 33.6908C30.9746 34.5663 29.526 35.4438 28.6306 36.8056C27.7565 38.1443 27.5343 39.8034 27.3114 41.4674C27.1867 42.3989 27.0617 43.332 26.822 44.2113C26.5952 45.05 26.2391 45.8887 25.8788 46.7373ZM37.2181 66.9164C38.0279 68.0242 38.8523 69.152 40.066 69.7414C41.2919 70.3367 42.7046 70.2892 44.0923 70.2425C44.8464 70.2171 45.5932 70.192 46.2985 70.2704C47.0252 70.3588 47.7519 70.5513 48.4786 70.7438C49.8109 71.0967 51.1431 71.4496 52.4754 71.1613C53.766 70.8783 54.9105 69.9995 56.0588 69.1178C56.7178 68.6119 57.3781 68.1049 58.068 67.709C58.7106 67.3388 59.4215 67.0436 60.1384 66.7458C61.4701 66.1927 62.823 65.6308 63.7996 64.563C64.7219 63.5692 65.2033 62.1908 65.6905 60.7955C65.9676 60.0018 66.2467 59.2027 66.6098 58.4659C66.9765 57.7118 67.4474 56.995 67.9136 56.2855C68.7212 55.0566 69.5144 53.8494 69.7261 52.5079C69.9813 51.0671 69.5917 49.6503 69.2066 48.2495C69.0038 47.5118 68.8022 46.7787 68.6966 46.0488C68.598 45.2988 68.5973 44.5034 68.5965 43.7047C68.5951 42.2499 68.5938 40.784 68.001 39.5619C67.4232 38.3333 66.3298 37.5034 65.2304 36.6688C64.6356 36.2173 64.0391 35.7645 63.5214 35.2465C63.0399 34.7455 62.6084 34.1544 62.1727 33.5575C61.3495 32.4298 60.5112 31.2814 59.2922 30.6806C58.0804 30.0922 56.6746 30.1319 55.3014 30.1707C54.5305 30.1924 53.7699 30.2139 53.0597 30.1238C52.317 30.0435 51.5707 29.8508 50.8247 29.6583C49.5025 29.317 48.1813 28.976 46.8828 29.2607C45.5586 29.5472 44.3956 30.4441 43.2382 31.3365C42.596 31.8317 41.9555 32.3255 41.2903 32.713C40.6465 33.0784 39.943 33.3707 39.2359 33.6645C37.8955 34.2214 36.5422 34.7837 35.5586 35.859C34.6283 36.8427 34.152 38.2031 33.6686 39.5837C33.3858 40.3914 33.1006 41.206 32.7206 41.9562C32.353 42.7123 31.8842 43.4308 31.4202 44.1422C30.6197 45.3692 29.8333 46.5747 29.6043 47.9142C29.3718 49.3284 29.7489 50.7196 30.1217 52.0951C30.3288 52.8589 30.5345 53.6178 30.6338 54.3732C30.7327 55.1251 30.7367 55.9226 30.7407 56.7234C30.748 58.1762 30.7554 59.6397 31.3294 60.8602C31.9186 62.0749 33.0003 62.9 34.0821 63.7251C34.6863 64.1859 35.2905 64.6467 35.809 65.1755C36.3177 65.6845 36.7656 66.2973 37.2181 66.9164Z"
      fill="url(#paint1_linear_245_2683)"  filter="url(#sofGlow)"
    />
    <path
      id="3"
      fill-rule="evenodd"
      clip-rule="evenodd"
      d="M56.4875 39.3448C55.9606 38.694 55.4177 38.0235 54.6735 37.6966C53.9067 37.386 53.0439 37.4591 52.2033 37.5303C51.7629 37.5676 51.3286 37.6044 50.9174 37.5852C50.4751 37.5557 50.0295 37.4637 49.584 37.3718C48.7682 37.2033 47.953 37.035 47.1612 37.2511C46.3651 37.4684 45.6867 38.0505 45.0112 38.6302C44.6478 38.942 44.2853 39.2531 43.9058 39.5063C43.5244 39.7509 43.1018 39.9508 42.6765 40.152C41.8919 40.5231 41.0985 40.8984 40.5391 41.5665C40.0005 42.2133 39.7515 43.0688 39.5005 43.9309C39.3626 44.4048 39.2241 44.8807 39.0366 45.325C38.8375 45.7733 38.5814 46.2074 38.3269 46.6386C37.8702 47.4126 37.4188 48.1776 37.3116 49C37.2226 49.8549 37.4866 50.6757 37.7466 51.4842C37.8931 51.9394 38.0383 52.3907 38.1185 52.8421C38.2109 53.3146 38.2389 53.8175 38.2667 54.3185C38.3145 55.1753 38.3619 56.0268 38.7306 56.7119C39.125 57.4296 39.8084 57.8929 40.4902 58.3551C40.8664 58.6102 41.2421 58.865 41.5686 59.1619C41.8864 59.4501 42.1723 59.8022 42.4617 60.1585C42.9832 60.8006 43.516 61.4567 44.2675 61.779C45.0141 62.0887 45.8679 62.0169 46.7121 61.9459C47.1577 61.9084 47.6007 61.8711 48.0237 61.8903C48.4677 61.92 48.9153 62.0126 49.3613 62.105C50.1731 62.273 50.9799 62.44 51.7521 62.2244C52.5481 62.0072 53.2265 61.425 53.902 60.8454C54.2654 60.5336 54.6279 60.2225 55.0074 59.9693C55.3888 59.7247 55.8115 59.5248 56.2367 59.3236C57.0213 58.9525 57.8147 58.5772 58.3741 57.9091C58.9017 57.2757 59.1514 56.442 59.4042 55.598C59.5514 55.1066 59.6996 54.6116 59.9044 54.1506C60.1 53.687 60.3603 53.2388 60.6192 52.793C61.06 52.034 61.4965 51.2824 61.6016 50.4756C61.7087 49.6184 61.438 48.7956 61.1714 47.9851C61.0224 47.532 60.8746 47.0828 60.7948 46.6335C60.7021 46.1699 60.6742 45.6682 60.6462 45.1651C60.5986 44.3085 60.5507 43.4477 60.1826 42.7636C59.7996 42.0336 59.1056 41.5667 58.4064 41.0964C58.0391 40.8493 57.6704 40.6013 57.3446 40.3136C57.0447 40.0329 56.7684 39.6916 56.4875 39.3448ZM45.0173 40.4111C44.3371 40.5659 43.6416 40.7242 43.0989 41.1767C42.5346 41.6321 42.2204 42.3257 41.9148 43.0004C41.7533 43.3571 41.5941 43.7084 41.4017 44.0165C41.1871 44.3642 40.9199 44.6855 40.654 45.0054C40.1959 45.5566 39.7414 46.1034 39.5653 46.7728C39.3884 47.4632 39.504 48.1986 39.6187 48.929C39.6845 49.3473 39.7499 49.7638 39.7601 50.1693C39.7698 50.5578 39.7321 50.9598 39.6942 51.3635C39.6236 52.1172 39.5524 52.877 39.7879 53.5659C40.0184 54.2223 40.5086 54.743 41.0068 55.2721C41.2905 55.5734 41.5767 55.8774 41.819 56.2108C42.0423 56.5314 42.2351 56.8892 42.427 57.2453C42.785 57.9098 43.1397 58.5683 43.6832 58.9671C44.267 59.3869 44.9704 59.5076 45.6679 59.6272C46.0342 59.69 46.3989 59.7525 46.7438 59.858C47.1129 59.9708 47.4782 60.1479 47.8439 60.3252C48.4707 60.6291 49.0986 60.9335 49.7488 60.9159C50.4124 60.898 51.0297 60.5562 51.6529 60.2111C51.9966 60.0208 52.3421 59.8295 52.6981 59.6909C53.0278 59.5648 53.388 59.486 53.7527 59.4062C54.4342 59.2571 55.1315 59.1045 55.6752 58.633C56.2479 58.1708 56.563 57.4755 56.873 56.7914C57.0299 56.4452 57.1855 56.1019 57.3725 55.7932C57.578 55.47 57.8318 55.1674 58.0866 54.8637C58.5559 54.3042 59.0285 53.7408 59.2088 53.037C59.3847 52.3684 59.2716 51.6442 59.1575 50.9136C59.0911 50.4882 59.0243 50.0605 59.0141 49.6404C58.9934 49.227 59.0341 48.8021 59.0749 48.3757C59.1441 47.6533 59.2137 46.9265 58.9862 46.2438C58.7558 45.5874 58.2655 45.0667 57.7674 44.5376C57.4837 44.2363 57.1974 43.9323 56.9551 43.5989C56.7315 43.2778 56.5384 42.9227 56.3463 42.5693C55.9885 41.9114 55.6339 41.2592 55.0909 40.8426C54.5166 40.4296 53.815 40.3177 53.128 40.2082C52.7498 40.1479 52.376 40.0883 52.0303 39.9796C51.6814 39.8632 51.3359 39.6962 50.9902 39.529C50.3435 39.2164 49.6962 38.9035 49.0254 38.9216C48.3755 38.9392 47.7701 39.2674 47.16 39.598C46.8035 39.7912 46.4454 39.9853 46.0761 40.1188C45.745 40.2454 45.3834 40.3277 45.0173 40.4111Z"
      fill="url(#paint2_linear_245_2683)"   filter="url(#sofGlow)"
    />
    <path
      id="4"
      fill-rule="evenodd"
      clip-rule="evenodd"
      d="M52.5656 55.4682C52.9666 55.3573 53.3788 55.2433 53.6996 54.958C54.0054 54.6699 54.1716 54.2423 54.3337 53.8255C54.4223 53.5976 54.5096 53.3729 54.6178 53.1761C54.73 52.989 54.8674 52.8081 55.0056 52.6261C55.2786 52.2667 55.5549 51.9029 55.6472 51.4778C55.7365 51.0669 55.6424 50.6215 55.5489 50.1786C55.4966 49.9313 55.4446 49.6848 55.4246 49.4455C55.4046 49.2051 55.417 48.9539 55.4294 48.7022C55.4515 48.2544 55.4737 47.8052 55.3133 47.4131C55.1492 47.0116 54.8296 46.7058 54.5035 46.3937C54.3322 46.2298 54.159 46.0641 54.0056 45.8818C53.8568 45.6932 53.7292 45.4797 53.6026 45.268C53.3743 44.8861 53.1493 44.5098 52.8092 44.2949C52.4534 44.0635 52.0407 44.0142 51.6293 43.965C51.3973 43.9373 51.1657 43.9097 50.945 43.8494C50.7128 43.7966 50.4807 43.6998 50.2485 43.6029C49.8685 43.4444 49.4886 43.2859 49.1087 43.3205C48.6969 43.3563 48.3313 43.5765 47.9672 43.7957C47.7655 43.9173 47.5642 44.0385 47.3558 44.1278C47.1647 44.2139 46.9539 44.2737 46.7404 44.3342C46.332 44.4501 45.9135 44.5688 45.6029 44.8796C45.2703 45.1754 45.0972 45.6062 44.9289 46.0254C44.8437 46.2374 44.7597 46.4465 44.6569 46.6335C44.5403 46.8377 44.3965 47.0284 44.254 47.2173C43.9886 47.5692 43.7276 47.9151 43.6552 48.3318C43.5641 48.7694 43.652 49.2188 43.7391 49.6646C43.785 49.8996 43.8308 50.1336 43.85 50.3642C43.8693 50.5961 43.8618 50.8381 43.8542 51.0819C43.84 51.5407 43.8256 52.0063 43.9891 52.4244C44.1289 52.7915 44.4331 53.0817 44.7435 53.3779C44.9275 53.5534 45.1137 53.731 45.269 53.9278C45.4167 54.115 45.5469 54.3265 45.677 54.5378C45.9146 54.9237 46.1516 55.3087 46.4932 55.5426C46.8239 55.7516 47.2309 55.7972 47.6391 55.8429C47.8834 55.8703 48.1282 55.8977 48.3574 55.9602C48.5689 56.018 48.7772 56.1056 48.9855 56.1933C49.38 56.3594 49.775 56.5256 50.1938 56.4892C50.5847 56.4714 50.9415 56.2493 51.3006 56.0258C51.5038 55.8993 51.7077 55.7724 51.9189 55.6818C52.1189 55.5918 52.3405 55.5305 52.5656 55.4682ZM54.7621 49.7616C54.85 49.4106 54.9398 49.0522 54.8681 48.6937C54.8139 48.3502 54.5837 48.0537 54.3604 47.766C54.2398 47.6106 54.1212 47.4579 54.0334 47.3017C53.9337 47.1221 53.8554 46.9282 53.7781 46.7367C53.6397 46.3937 53.5043 46.0584 53.2543 45.8261C53.0076 45.5969 52.6603 45.5016 52.3116 45.406C52.1099 45.3507 51.9076 45.2953 51.724 45.2136C51.5441 45.1336 51.3714 45.0249 51.1982 44.9158C50.889 44.7212 50.5782 44.5254 50.2216 44.4898C49.8905 44.4549 49.5595 44.5729 49.2216 44.6933C49.0199 44.7652 48.8158 44.8379 48.6078 44.8795C48.3875 44.9346 48.1541 44.9548 47.925 44.9747C47.5752 45.005 47.2351 45.0344 46.9662 45.1858C46.6302 45.3726 46.4069 45.6972 46.1871 46.0167C46.0793 46.1735 45.9723 46.329 45.8532 46.4665C45.7149 46.6262 45.5439 46.7656 45.3731 46.9049C45.0974 47.1297 44.8221 47.3542 44.6846 47.6636C44.5469 47.9738 44.5477 48.3267 44.5485 48.6827C44.549 48.9017 44.5495 49.1219 44.5177 49.3341C44.4979 49.5226 44.4498 49.7146 44.4011 49.9089C44.3132 50.2599 44.2235 50.6183 44.2951 50.9767C44.3653 51.3279 44.5794 51.6126 44.7907 51.8937C44.9145 52.0584 45.0373 52.2218 45.1298 52.3966C45.2328 52.5718 45.313 52.7661 45.3928 52.9598C45.5286 53.2891 45.6636 53.6164 45.9089 53.8443C46.1782 54.0779 46.5286 54.1839 46.8779 54.2896C47.0699 54.3477 47.2616 54.4056 47.4392 54.4846C47.6312 54.5594 47.815 54.6709 48.0001 54.7832C48.2977 54.9638 48.5985 55.1463 48.9417 55.1807C49.275 55.2158 49.6194 55.0959 49.9679 54.9747C50.1721 54.9036 50.3777 54.832 50.5833 54.7909C50.7711 54.7513 50.973 54.7328 51.1765 54.7142C51.5456 54.6804 51.9199 54.6462 52.2249 54.4846C52.5356 54.3017 52.7503 53.9866 52.9636 53.6735C53.075 53.5101 53.1859 53.3472 53.31 53.204C53.4346 53.0793 53.5763 52.9632 53.7186 52.8465C54.0214 52.5983 54.3272 52.3476 54.4786 52.0068C54.6164 51.6966 54.6156 51.3437 54.6147 50.9878C54.6142 50.7687 54.6137 50.5485 54.6455 50.3364C54.6654 50.1479 54.7134 49.9559 54.7621 49.7616Z"
      fill="url(#paint3_linear_245_2683)"  filter="url(#sofGlow)"
    />
    <path
      id="5"
      d="M47.3557 50.5312C47.3001 50.3084 47.4113 50.0857 47.4392 49.863C47.4392 49.6403 47.3835 49.3897 47.467 49.167C47.5505 48.9721 47.7731 48.8329 47.9122 48.6658C48.0513 48.4709 48.1626 48.2482 48.3574 48.109C48.5243 47.9976 48.8025 47.9976 49.0251 47.942C49.2477 47.8863 49.4703 47.7471 49.6651 47.7471C49.9155 47.7749 50.1102 47.942 50.305 47.9976C50.5276 48.0812 50.778 48.0812 50.945 48.2204C51.1119 48.3596 51.1675 48.6101 51.3067 48.805C51.418 48.9999 51.6127 49.1391 51.6684 49.3618C51.724 49.5846 51.6127 49.8351 51.6127 50.0579C51.5849 50.2806 51.6684 50.5312 51.5849 50.726C51.5014 50.9488 51.2788 51.088 51.1119 51.255C50.9728 51.4221 50.8893 51.6726 50.6945 51.8118C50.4998 51.9232 50.2494 51.8954 50.0268 51.951C49.8042 52.0346 49.5816 52.1738 49.359 52.1738C49.1364 52.1459 48.9416 51.9789 48.7469 51.8954C48.5243 51.8118 48.2739 51.8118 48.1069 51.6726C47.9122 51.5334 47.8565 51.2829 47.7452 51.088C47.6339 50.9209 47.4113 50.7539 47.3557 50.5312Z"
      fill="url(#paint4_linear_245_2683)"
    />
  </g>
  <defs>
    <linearGradient
      id="paint0_linear_245_2683"
      x1="49.9443"
      y1="7.25464"
      x2="49.9443"
      y2="91.5609"
      gradientUnits="userSpaceOnUse"
    >
      <stop stop-color="#FFFF33" />
      <stop offset="1" stop-color="#33FFFF" />
    </linearGradient>
    <linearGradient
      id="paint1_linear_245_2683"
      x1="49.3189"
      y1="26.1794"
      x2="49.3189"
      y2="74.2816"
      gradientUnits="userSpaceOnUse"
    >
      <stop stop-color="#FFFF33" />
      <stop offset="1" stop-color="#33FFFF" />
    </linearGradient>
    <linearGradient
      id="paint2_linear_245_2683"
      x1="49.4598"
      y1="37.1489"
      x2="49.4598"
      y2="62.3267"
      gradientUnits="userSpaceOnUse"
    >
      <stop stop-color="#FFFF33" />
      <stop offset="1" stop-color="#33FFFF" />
    </linearGradient>
    <linearGradient
      id="paint3_linear_245_2683"
      x1="49.6499"
      y1="43.3157"
      x2="49.6499"
      y2="56.4943"
      gradientUnits="userSpaceOnUse"
    >
      <stop stop-color="#FFFF33" />
      <stop offset="1" stop-color="#33FFFF" />
    </linearGradient>
    <linearGradient
      id="paint4_linear_245_2683"
      x1="49.5121"
      y1="47.7471"
      x2="49.5121"
      y2="52.1738"
      gradientUnits="userSpaceOnUse"
    >
      <stop stop-color="#FFFF33" />
      <stop offset="1" stop-color="#33FFFF" />
    </linearGradient>
      <filter id="sofGlow" height="300%" width="300%" x="-75%" y="-75%">
		<!-- Thicken out the original shape -->
		<feMorphology operator="dilate" radius="4" in="SourceAlpha" result="thicken" />

		<!-- Use a gaussian blur to create the soft blurriness of the glow -->
		<feGaussianBlur in="thicken" stdDeviation="3" result="blurred" />

		<!-- Change the colour -->
		<feFlood flood-color="rgb(255,186,255)" result="glowColor" />

		<!-- Color in the glows -->
		<feComposite in="glowColor" in2="blurred" operator="in" result="softGlow_colored" />

		<!--	Layer the effects together -->
		<feMerge>
			<feMergeNode in="softGlow_colored"/>
			<feMergeNode in="SourceGraphic"/>
		</feMerge>

  

	</filter>
  </defs>
</svg>