
<svg
  xmlns="http://www.w3.org/2000/svg"
  version="1.1"
  xmlns:xlink="http://www.w3.org/1999/xlink"
  xmlns:svgjs="http://svgjs.dev/svgjs"
  viewBox="150 150 500 500"
>
  <defs>
    <linearGradient x1="50%" y1="0%" x2="50%" y2="100%" id="nnneon-grad">
      <stop stop-color="#8FFF33" stop-opacity="1" offset="0%"></stop>
      <stop stop-color="#334CFF" stop-opacity="1" offset="100%"></stop>
    </linearGradient>
    <filter
      id="nnneon-filter"
      x="-100%"
      y="-100%"
      width="600%"
      height="600%"
      filterUnits="objectBoundingBox"
      primitiveUnits="userSpaceOnUse"
      color-interpolation-filters="sRGB"
    >
      <feGaussianBlur
        stdDeviation="23 14"
        x="0%"
        y="0%"
        width="200%"
        height="200%"
        in="SourceGraphic"
        edgeMode="none"
        result="blur"
      ></feGaussianBlur>
    </filter>
    <filter
      id="nnneon-filter2"
      x="-100%"
      y="-100%"
      width="600%"
      height="600%"
      filterUnits="objectBoundingBox"
      primitiveUnits="userSpaceOnUse"
      color-interpolation-filters="sRGB"
    >
      <feGaussianBlur
        stdDeviation="22 24"
        x="0%"
        y="0%"
        width="600%"
        height="600%"
        in="SourceGraphic"
        edgeMode="none"
        result="blur"
      ></feGaussianBlur>
    </filter>
  </defs>
  <g stroke-width="24.5" stroke="url(#nnneon-grad)" fill="none">
    <path
      d="M389.539193831357 260.6330567252067C393.8248224840946 251.9730990445659 406.17518261570393 251.9730990445659 410.4608112684416 260.6330567252067L543.274450646323 529.0147155519013C547.113076092634 536.7713299380925 541.4689311676234 545.8619512823662 532.8148090379804 545.8619512823662H267.1851960618182C258.53107393217516 545.8619512823662 252.88692900716455 536.7713299380925 256.7255544534755 529.0147155519013L389.539193831357 260.6330567252067Z "
      filter="url(#nnneon-filter)"
    ></path>
    <path
      d="M400.539193831357 260.6330567252067C404.8248224840946 251.9730990445659 417.17518261570393 251.9730990445659 421.4608112684416 260.6330567252067L554.274450646323 529.0147155519013C558.113076092634 536.7713299380925 552.4689311676234 545.8619512823662 543.8148090379804 545.8619512823662H278.1851960618182C269.53107393217516 545.8619512823662 263.88692900716455 536.7713299380925 267.7255544534755 529.0147155519013L400.539193831357 260.6330567252067Z "
      filter="url(#nnneon-filter2)"
      opacity="0.49"
    ></path>
    <path
      d="M378.539193831357 260.6330567252067C382.8248224840946 251.9730990445659 395.17518261570393 251.9730990445659 399.4608112684416 260.6330567252067L532.274450646323 529.0147155519013C536.113076092634 536.7713299380925 530.4689311676234 545.8619512823662 521.8148090379804 545.8619512823662H256.1851960618182C247.53107393217516 545.8619512823662 241.88692900716455 536.7713299380925 245.72555445347552 529.0147155519013L378.539193831357 260.6330567252067Z "
      filter="url(#nnneon-filter2)"
      opacity="0.49"
    ></path>
    <path
      d="M389.539193831357 260.6330567252067C393.8248224840946 251.9730990445659 406.17518261570393 251.9730990445659 410.4608112684416 260.6330567252067L543.274450646323 529.0147155519013C547.113076092634 536.7713299380925 541.4689311676234 545.8619512823662 532.8148090379804 545.8619512823662H267.1851960618182C258.53107393217516 545.8619512823662 252.88692900716455 536.7713299380925 256.7255544534755 529.0147155519013L389.539193831357 260.6330567252067Z "
    ></path>
  </g>
</svg>
